<?xml version="1.0" encoding="UTF-8"?>
<svg version="1.1" xmlns="http://www.w3.org/2000/svg" width="500" height="500">
<path d="M0 0 C165 0 330 0 500 0 C500 165 500 330 500 500 C335 500 170 500 0 500 C0 335 0 170 0 0 Z " fill="#EDF3F4" transform="translate(0,0)"/>
<path d="M0 0 C2.14511261 1.72729971 3.89995617 3.1475686 5.14453125 5.63671875 C5.80453125 5.30671875 6.46453125 4.97671875 7.14453125 4.63671875 C7.63953125 6.12171875 7.63953125 6.12171875 8.14453125 7.63671875 C7.48453125 7.63671875 6.82453125 7.63671875 6.14453125 7.63671875 C6.57765625 8.40757812 7.01078125 9.1784375 7.45703125 9.97265625 C8.01390625 10.97554687 8.57078125 11.9784375 9.14453125 13.01171875 C9.70140625 14.00945312 10.25828125 15.0071875 10.83203125 16.03515625 C12.14453125 18.63671875 12.14453125 18.63671875 12.14453125 20.63671875 C12.80453125 20.63671875 13.46453125 20.63671875 14.14453125 20.63671875 C13.93828125 19.48171875 13.73203125 18.32671875 13.51953125 17.13671875 C13.03200091 13.2838748 13.51140881 10.42614841 14.59765625 6.734375 C15.54582971 3.09745252 15.81589862 -0.62724709 16.14453125 -4.36328125 C16.47453125 -4.36328125 16.80453125 -4.36328125 17.14453125 -4.36328125 C17.12358398 -3.55697266 17.10263672 -2.75066406 17.08105469 -1.91992188 C16.99743952 1.76549602 16.94572576 5.45071369 16.89453125 9.13671875 C16.86101562 10.40515625 16.8275 11.67359375 16.79296875 12.98046875 C16.71606449 20.36327735 16.99263029 25.43495645 21.14453125 31.63671875 C25.96062628 35.56822489 29.91037165 36.24480595 36.06640625 36.04296875 C39.52445849 35.58657607 42.63020766 34.68101315 45.95703125 33.63671875 C54.1389087 31.11644847 62.77838237 29.60420117 70.76953125 33.32421875 C75.41400952 37.84647391 78.26806215 42.54169027 81.01953125 48.32421875 C83.76443158 53.96941546 86.65919012 59.40515691 90.015625 64.71875 C91.99228885 68.07702665 92.33332091 71.20912001 92.6887207 75.02978516 C93.36679904 81.97144116 94.57378643 87.57323334 97.77734375 93.84765625 C101.47285839 101.38650611 103.90033472 109.56171022 106.14453125 117.63671875 C102.18453125 117.63671875 98.22453125 117.63671875 94.14453125 117.63671875 C91.14453125 109.88671875 91.14453125 109.88671875 91.14453125 107.63671875 C84.87453125 107.96671875 78.60453125 108.29671875 72.14453125 108.63671875 C71.15453125 111.60671875 70.16453125 114.57671875 69.14453125 117.63671875 C61.22453125 117.63671875 53.30453125 117.63671875 45.14453125 117.63671875 C44.48453125 109.05671875 43.82453125 100.47671875 43.14453125 91.63671875 C41.31382121 94.38278381 40.6172595 96.09254406 39.76953125 99.19921875 C38.45663045 103.76757766 36.82947952 108.11841343 35.01171875 112.5078125 C34.3253616 114.19278838 33.71987722 115.91068085 33.14453125 117.63671875 C29.84453125 117.63671875 26.54453125 117.63671875 23.14453125 117.63671875 C23.22703125 118.91546875 23.30953125 120.19421875 23.39453125 121.51171875 C23.38387738 128.2556205 21.3814568 134.28507907 16.70703125 139.19921875 C12.27084444 141.68781135 8.3248161 141.68636001 3.33203125 141.44921875 C-10.90870635 141.40099955 -22.09703469 146.03089152 -33.85546875 153.63671875 C-35.27666016 154.55324219 -35.27666016 154.55324219 -36.7265625 155.48828125 C-38.78876304 156.84592342 -40.83141569 158.22309439 -42.85546875 159.63671875 C-43.84546875 158.97671875 -44.83546875 158.31671875 -45.85546875 157.63671875 C-45.27796875 157.55421875 -44.70046875 157.47171875 -44.10546875 157.38671875 C-41.23953835 156.43140862 -39.85639235 154.85202702 -37.85546875 152.63671875 C-38.48453125 152.48976563 -39.11359375 152.3428125 -39.76171875 152.19140625 C-46.67993238 150.37850087 -52.93449927 148.3400928 -56.87890625 141.98876953 C-59.09860558 137.97390922 -61.03277094 133.83040864 -62.93261719 129.65673828 C-64.27069734 126.7278295 -65.68123474 123.83705001 -67.10546875 120.94921875 C-67.54375 120.03785156 -67.98203125 119.12648438 -68.43359375 118.1875 C-70.66862254 114.17795659 -72.40615305 111.11982398 -76.85546875 109.63671875 C-76.19546875 110.95671875 -75.53546875 112.27671875 -74.85546875 113.63671875 C-79.54296875 110.0234375 -79.54296875 110.0234375 -80.85546875 108.63671875 C-80.85546875 107.64671875 -80.85546875 106.65671875 -80.85546875 105.63671875 C-83.30042918 103.91960632 -83.30042918 103.91960632 -85.85546875 102.63671875 C-84.37046875 102.14171875 -84.37046875 102.14171875 -82.85546875 101.63671875 C-83.18546875 100.97671875 -83.51546875 100.31671875 -83.85546875 99.63671875 C-82.20546875 100.29671875 -80.55546875 100.95671875 -78.85546875 101.63671875 C-78.85546875 101.30671875 -78.85546875 100.97671875 -78.85546875 100.63671875 C-74.83713697 100.63671875 -73.01008148 102.3923019 -69.79296875 104.640625 C-69.15359375 104.96933594 -68.51421875 105.29804688 -67.85546875 105.63671875 C-66.37046875 105.14171875 -66.37046875 105.14171875 -64.85546875 104.63671875 C-65.35046875 103.64671875 -65.35046875 103.64671875 -65.85546875 102.63671875 C-64.86546875 102.63671875 -63.87546875 102.63671875 -62.85546875 102.63671875 C-66.32046875 99.17171875 -66.32046875 99.17171875 -69.85546875 95.63671875 C-69.52546875 94.97671875 -69.19546875 94.31671875 -68.85546875 93.63671875 C-68.22898437 94.27480469 -67.6025 94.91289062 -66.95703125 95.5703125 C-66.13976562 96.39660156 -65.3225 97.22289062 -64.48046875 98.07421875 C-63.66835937 98.89792969 -62.85625 99.72164063 -62.01953125 100.5703125 C-60.0319836 102.67106547 -60.0319836 102.67106547 -57.85546875 103.63671875 C-57.85546875 102.97671875 -57.85546875 102.31671875 -57.85546875 101.63671875 C-58.44972656 101.39953125 -59.04398438 101.16234375 -59.65625 100.91796875 C-64.47275038 98.11190814 -67.13537799 92.27177616 -68.56640625 87.03515625 C-69.77897085 78.33163704 -66.5019896 72.29184252 -61.94140625 65.10546875 C-58.90613888 58.2051487 -59.95569606 52.77796064 -62.29296875 45.94921875 C-65.31351612 36.83950427 -65.31351612 36.83950427 -64.85546875 32.63671875 C-64.52546875 32.30671875 -64.19546875 31.97671875 -63.85546875 31.63671875 C-63.81453938 29.30374442 -63.81305152 26.9696665 -63.85546875 24.63671875 C-63.19546875 24.63671875 -62.53546875 24.63671875 -61.85546875 24.63671875 C-61.52546875 23.31671875 -61.19546875 21.99671875 -60.85546875 20.63671875 C-60.52546875 20.63671875 -60.19546875 20.63671875 -59.85546875 20.63671875 C-59.62472656 19.77949219 -59.39398438 18.92226562 -59.15625 18.0390625 C-57.23533351 11.30446594 -55.45610488 5.96377111 -50.85546875 0.63671875 C-50.19546875 0.30671875 -49.53546875 -0.02328125 -48.85546875 -0.36328125 C-48.13359375 -1.14703125 -47.41171875 -1.93078125 -46.66796875 -2.73828125 C-33.59746487 -14.93741821 -12.92431403 -9.49596968 0 0 Z " fill="#B1E9E3" transform="translate(194.85546875,183.36328125)"/>
<path d="M0 0 C0 0.66 0 1.32 0 2 C1.11375 2.1546875 1.11375 2.1546875 2.25 2.3125 C5.21722987 3.05430747 6.80552883 3.88680554 9 6 C9 6.99 9 7.98 9 9 C9.61875 9.103125 10.2375 9.20625 10.875 9.3125 C13 10 13 10 15 13 C15.99 13 16.98 13 18 13 C18.18175781 13.556875 18.36351562 14.11375 18.55078125 14.6875 C18.92783203 15.8321875 18.92783203 15.8321875 19.3125 17 C19.58191406 17.8353125 19.85132813 18.670625 20.12890625 19.53125 C21.02188128 22.22476632 21.02188128 22.22476632 22.75 25.5 C25.67600525 33.09842201 23.97306539 43.55176288 21.95703125 51.25 C21.19575112 54.2329752 20.76688252 56.47271054 20.875 59.5 C20.91625 60.655 20.9575 61.81 21 63 C20.34 63 19.68 63 19 63 C17.9923048 61.2335343 16.99408286 59.46166177 16 57.6875 C15.443125 56.70136719 14.88625 55.71523437 14.3125 54.69921875 C13 52 13 52 13 49 C5.65923513 40.60400019 -6.10369021 34.65484507 -17.17578125 33.83984375 C-25.95491739 33.52581555 -34.1187855 35.35387528 -41 41 C-41.33 41.99 -41.66 42.98 -42 44 C-43.485 44.495 -43.485 44.495 -45 45 C-48.91076574 50.84874164 -50.78368267 57.14439324 -52 64 C-52.66 64 -53.32 64 -54 64 C-54.495 65.485 -54.495 65.485 -55 67 C-55.66 67 -56.32 67 -57 67 C-56.91621094 67.60328125 -56.83242187 68.2065625 -56.74609375 68.828125 C-56.59333984 70.02695313 -56.59333984 70.02695313 -56.4375 71.25 C-56.28087891 72.43335938 -56.28087891 72.43335938 -56.12109375 73.640625 C-56 76 -56 76 -56.55688477 77.90820312 C-57.43296903 82.04390007 -55.09971405 86.51851789 -53.73828125 90.44921875 C-51.61632283 97.0261175 -51.47316675 101.86400426 -54.59375 108.2734375 C-55.53734375 109.80871094 -55.53734375 109.80871094 -56.5 111.375 C-60.18165783 117.95643781 -62.2817223 123.1970626 -60.2890625 130.6640625 C-58.39719106 135.79481785 -56.12856995 141.43571502 -51 144 C-51 144.66 -51 145.32 -51 146 C-54.21524305 144.59155282 -56.32183868 142.89655214 -58.75 140.375 C-59.36359375 139.74335938 -59.9771875 139.11171875 -60.609375 138.4609375 C-61.06828125 137.97882813 -61.5271875 137.49671875 -62 137 C-61.57847656 137.48210937 -61.15695313 137.96421875 -60.72265625 138.4609375 C-60.17480469 139.09257812 -59.62695312 139.72421875 -59.0625 140.375 C-58.51722656 141.00148438 -57.97195312 141.62796875 -57.41015625 142.2734375 C-56 144 -56 144 -55 146 C-55.99 146 -56.98 146 -58 146 C-57.67 146.66 -57.34 147.32 -57 148 C-60.112514 148.96747771 -61.48016155 149.25702664 -64.45703125 147.78515625 C-65.23433594 147.21667969 -66.01164062 146.64820313 -66.8125 146.0625 C-67.60269531 145.49660156 -68.39289063 144.93070313 -69.20703125 144.34765625 C-70.09455078 143.68056641 -70.09455078 143.68056641 -71 143 C-70.34 143.99 -69.68 144.98 -69 146 C-69.804375 145.67 -70.60875 145.34 -71.4375 145 C-74.61992039 143.7285391 -74.61992039 143.7285391 -78 145 C-77.01 145.598125 -76.02 146.19625 -75 146.8125 C-74.01 147.534375 -73.02 148.25625 -72 149 C-72 149.99 -72 150.98 -72 152 C-71.01 152.66 -70.02 153.32 -69 154 C-69.99 152.02 -69.99 152.02 -71 150 C-61.11364328 155.39714372 -57.38769583 166.03278773 -53.19628906 175.95483398 C-49.76497159 183.98161068 -46.5277418 188.22624128 -38.55078125 191.99609375 C-35.29346436 193.27806992 -32.481961 193.77291559 -29 194 C-31 196 -31 196 -34 198.375 C-37.01475789 200.66928227 -37.01475789 200.66928227 -38.0625 203.1875 C-39 205 -39 205 -41.22265625 206.12109375 C-46.86825802 207.90767659 -53.51432716 207.09248639 -58.8125 204.4375 C-64.71767916 200.50544561 -67.9961572 195.12558565 -69.56420898 188.28808594 C-70.54080297 183.1605572 -71.09943851 177.96238923 -71.6796875 172.77734375 C-72.61768577 165.45456178 -74.3833279 159.03414978 -80.0625 154 C-82.82101342 151.71860451 -82.82101342 151.71860451 -86 152 C-87.7825908 151.14844389 -89.52944838 150.22081404 -91.25 149.25 C-92.22066406 148.70601562 -93.19132812 148.16203125 -94.19140625 147.6015625 C-95.11824219 147.07304687 -96.04507813 146.54453125 -97 146 C-98.12728516 145.36191406 -98.12728516 145.36191406 -99.27734375 144.7109375 C-100.85531031 143.81385222 -102.42833194 142.90807488 -104 142 C-103.34 141.67 -102.68 141.34 -102 141 C-101.01 141.33 -100.02 141.66 -99 142 C-99.65226562 141.57589844 -100.30453125 141.15179688 -100.9765625 140.71484375 C-110.87351761 134.07308184 -117.6034294 126.93530976 -120.25 115.0625 C-121.53555537 107.57873123 -121.45151526 101.20132608 -119 94 C-118.34 94 -117.68 94 -117 94 C-116.9175 93.21625 -116.835 92.4325 -116.75 91.625 C-116 89 -116 89 -114 87.8125 C-113.01 87.4103125 -113.01 87.4103125 -112 87 C-110.75453595 84.50907189 -111.2232422 83.58919267 -112 81 C-111.02160156 80.3709375 -110.04320313 79.741875 -109.03515625 79.09375 C-102.13820546 74.60668324 -95.63688951 70.1865622 -89.734375 64.3984375 C-88 63 -88 63 -85 63 C-84.67 62.34 -84.34 61.68 -84 61 C-84.66 61 -85.32 61 -86 61 C-84.515 53.575 -84.515 53.575 -83 46 C-82.34 46 -81.68 46 -81 46 C-80.97310784 44.52093108 -80.95365379 43.04172517 -80.9375 41.5625 C-80.92589844 40.73878906 -80.91429687 39.91507813 -80.90234375 39.06640625 C-80.76732652 37.00836062 -80.76732652 37.00836062 -82 36 C-82.07271741 33.64686445 -82.08370868 31.29166332 -82.0625 28.9375 C-82.05347656 27.64714844 -82.04445312 26.35679687 -82.03515625 25.02734375 C-82.02355469 24.02832031 -82.01195312 23.02929688 -82 22 C-81.34 22 -80.68 22 -80 22 C-79.9071875 20.1128125 -79.9071875 20.1128125 -79.8125 18.1875 C-79.54296875 15.9609375 -79.54296875 15.9609375 -79 14 C-76.625 12.3125 -76.625 12.3125 -74 11 C-73.505 10.175 -73.01 9.35 -72.5 8.5 C-70.64982356 5.4163726 -69.28029281 4.45790791 -66 3 C-63.32079806 2.48706729 -60.72616602 2.23103102 -58 2 C-58 1.34 -58 0.68 -58 0 C-53.11845195 -1.34663394 -49.09284165 -2.12421565 -44 -2 C-43.67 -2.33 -43.34 -2.66 -43 -3 C-29.44539333 -5.16626134 -12.61501282 -6.30750641 0 0 Z " fill="#E2E2E2" transform="translate(188,141)"/>
<path d="M0 0 C1.37285156 0.74830078 1.37285156 0.74830078 2.7734375 1.51171875 C3.50820312 2.00285156 4.24296875 2.49398437 5 3 C5 3.66 5 4.32 5 5 C6.32 5.66 7.64 6.32 9 7 C8.67 7.66 8.34 8.32 8 9 C7.01 8.505 7.01 8.505 6 8 C6.45890625 8.47308594 6.9178125 8.94617188 7.390625 9.43359375 C11.72748899 14.10756691 15.24431995 18.77766336 17 25 C16.67 25.66 16.34 26.32 16 27 C14 26 14 26 11.9375 23.8125 C3.66883808 15.44712858 -7.88234549 9.98415182 -19.6875 9.75 C-27.57983198 9.84409636 -34.86378093 11.96515358 -41 17 C-41.495 18.485 -41.495 18.485 -42 20 C-43.485 20.495 -43.485 20.495 -45 21 C-48.91076574 26.84874164 -50.78368267 33.14439324 -52 40 C-52.66 40 -53.32 40 -54 40 C-54.33 40.99 -54.66 41.98 -55 43 C-55.66 43 -56.32 43 -57 43 C-56.91621094 43.60328125 -56.83242187 44.2065625 -56.74609375 44.828125 C-56.59333984 46.02695313 -56.59333984 46.02695313 -56.4375 47.25 C-56.28087891 48.43335938 -56.28087891 48.43335938 -56.12109375 49.640625 C-56 52 -56 52 -56.55688477 53.90820312 C-57.43296903 58.04390007 -55.09971405 62.51851789 -53.73828125 66.44921875 C-51.61632283 73.0261175 -51.47316675 77.86400426 -54.59375 84.2734375 C-55.2228125 85.29695313 -55.851875 86.32046875 -56.5 87.375 C-60.18165783 93.95643781 -62.2817223 99.1970626 -60.2890625 106.6640625 C-58.39719106 111.79481785 -56.12856995 117.43571502 -51 120 C-51 120.66 -51 121.32 -51 122 C-54.21524305 120.59155282 -56.32183868 118.89655214 -58.75 116.375 C-59.67039062 115.42753906 -59.67039062 115.42753906 -60.609375 114.4609375 C-61.06828125 113.97882813 -61.5271875 113.49671875 -62 113 C-61.57847656 113.48210937 -61.15695313 113.96421875 -60.72265625 114.4609375 C-59.90087891 115.40839844 -59.90087891 115.40839844 -59.0625 116.375 C-58.51722656 117.00148438 -57.97195312 117.62796875 -57.41015625 118.2734375 C-56 120 -56 120 -55 122 C-55.99 122 -56.98 122 -58 122 C-57.67 122.66 -57.34 123.32 -57 124 C-60.112514 124.96747771 -61.48016155 125.25702664 -64.45703125 123.78515625 C-65.23433594 123.21667969 -66.01164062 122.64820313 -66.8125 122.0625 C-67.60269531 121.49660156 -68.39289063 120.93070312 -69.20703125 120.34765625 C-69.79871094 119.90292969 -70.39039063 119.45820313 -71 119 C-70.01 120.485 -70.01 120.485 -69 122 C-69.804375 121.67 -70.60875 121.34 -71.4375 121 C-73.69681125 119.93940959 -73.69681125 119.93940959 -75 120 C-75.99 120.495 -75.99 120.495 -77 121 C-79.4750171 119.88568235 -81.67883419 118.41849022 -84 117 C-83.505 117.99 -83.505 117.99 -83 119 C-84.175625 118.7215625 -84.175625 118.7215625 -85.375 118.4375 C-87.97089775 117.74037734 -87.97089775 117.74037734 -90 119 C-98.51866591 114.83249346 -106.27996757 108.86258107 -109.875 99.875 C-112.94561042 90.8186427 -113.95382433 77.57525152 -110.875 68.375 C-106.89695816 61.21452469 -101.68587027 56.63259539 -95 52 C-94.34 52.33 -93.68 52.66 -93 53 C-93.99 54.32 -94.98 55.64 -96 57 C-93.03 54.36 -90.06 51.72 -87 49 C-86.34 49.33 -85.68 49.66 -85 50 C-85.56589844 50.54269531 -86.13179687 51.08539063 -86.71484375 51.64453125 C-87.44832031 52.35996094 -88.18179688 53.07539063 -88.9375 53.8125 C-89.66839844 54.52019531 -90.39929688 55.22789062 -91.15234375 55.95703125 C-93.20834646 57.95536163 -93.20834646 57.95536163 -94 61 C-93.07767578 60.02546875 -93.07767578 60.02546875 -92.13671875 59.03125 C-91.32847656 58.1959375 -90.52023438 57.360625 -89.6875 56.5 C-88.88699219 55.6646875 -88.08648437 54.829375 -87.26171875 53.96875 C-85 52 -85 52 -82 52 C-79.64333024 50.00842351 -79.64333024 50.00842351 -77.3125 47.5 C-76.50425781 46.6646875 -75.69601563 45.829375 -74.86328125 44.96875 C-73.94095703 43.99421875 -73.94095703 43.99421875 -73 43 C-73 46.99904969 -74.72586967 48.80200422 -77 52 C-74.69 50.02 -72.38 48.04 -70 46 C-69.67 46.33 -69.34 46.66 -69 47 C-67.68 44.36 -66.36 41.72 -65 39 C-65.66 39 -66.32 39 -67 39 C-66.34 34.38 -65.68 29.76 -65 25 C-64.34 25 -63.68 25 -63 25 C-62.77213542 26.953125 -62.54427083 28.90625 -62.31640625 30.859375 C-62.00663274 32.95512663 -61.54810324 34.95497613 -61 37 C-60.9729957 35.54176788 -60.95360213 34.08339325 -60.9375 32.625 C-60.92589844 31.81289062 -60.91429687 31.00078125 -60.90234375 30.1640625 C-60.85533666 27.95062858 -60.85533666 27.95062858 -62 26 C-61.34830626 16.74850448 -59.66854866 10.34885225 -52.875 3.875 C-39.94439295 -6.74258898 -14.33743233 -8.02788814 0 0 Z " fill="#E4E8E9" transform="translate(188,165)"/>
<path d="M0 0 C4.29 0 8.58 0 13 0 C16.3 8.58 19.6 17.16 23 26 C25.27336035 22.58995947 26.55262173 19.07324077 27.9375 15.25 C29.81761495 10.09531144 31.79621109 5.02595441 34 0 C38.29 0 42.58 0 47 0 C47.12117188 1.71703125 47.24234375 3.4340625 47.3671875 5.203125 C48.36771309 19.16116155 49.50860921 33.08564126 51 47 C51.21615967 46.42668945 51.43231934 45.85337891 51.6550293 45.26269531 C55.61548069 34.77302166 59.60940283 24.3186425 64 14 C65.32986533 10.76763612 66.65883839 7.53492278 67.984375 4.30078125 C69 2 69 2 70 1 C71.85287502 0.92773498 73.70833878 0.9161878 75.5625 0.9375 C76.57441406 0.94652344 77.58632813 0.95554688 78.62890625 0.96484375 C79.41136719 0.97644531 80.19382812 0.98804688 81 1 C81.45439453 2.10794922 81.45439453 2.10794922 81.91796875 3.23828125 C84.02112968 8.33116633 86.15830637 13.38682088 88.5 18.375 C90.940426 23.6766151 92.88146506 29.10344697 94.796875 34.61328125 C96.17741805 38.4994203 97.7077611 42.30627552 99.30078125 46.109375 C100 48 100 48 100 50 C96.04 50 92.08 50 88 50 C85 42.25 85 42.25 85 40 C78.73 40.33 72.46 40.66 66 41 C65.01 43.97 64.02 46.94 63 50 C55.08 50 47.16 50 39 50 C38.01 37.13 38.01 37.13 37 24 C35.16928996 26.74606506 34.47272825 28.45582531 33.625 31.5625 C32.3120992 36.13085891 30.68494827 40.48169468 28.8671875 44.87109375 C28.18083035 46.55606963 27.57534597 48.2739621 27 50 C24.69 50 22.38 50 20 50 C16.66666667 40.66666667 13.33333333 31.33333333 10 22 C9.01 31.24 8.02 40.48 7 50 C3.37 50 -0.26 50 -4 50 C-2.02501099 15.51072249 -2.02501099 15.51072249 0 0 Z " fill="#040707" transform="translate(201,251)"/>
<path d="M0 0 C2.99660414 1.49830207 3.09473314 3.58981682 4.1640625 6.71484375 C4.76347656 8.45604492 4.76347656 8.45604492 5.375 10.23242188 C5.7875 11.45509766 6.2 12.67777344 6.625 13.9375 C7.04523438 15.15630859 7.46546875 16.37511719 7.8984375 17.63085938 C11 26.70897169 11 26.70897169 11 29 C10.01 29 9.02 29 8 29 C8.0825 30.27875 8.165 31.5575 8.25 32.875 C8.23934613 39.61890175 6.23692555 45.64836032 1.5625 50.5625 C-2.87368681 53.0510926 -6.81971515 53.04964126 -11.8125 52.8125 C-26.0532376 52.7642808 -37.24156594 57.39417277 -49 65 C-49.94746094 65.61101562 -50.89492187 66.22203125 -51.87109375 66.8515625 C-53.93329429 68.20920467 -55.97594694 69.58637564 -58 71 C-58.99 70.34 -59.98 69.68 -61 69 C-60.4225 68.9175 -59.845 68.835 -59.25 68.75 C-56.3840696 67.79468987 -55.0009236 66.21530827 -53 64 C-53.99 63.34 -54.98 62.68 -56 62 C-54.68 62 -53.36 62 -52 62 C-52.7763932 58.9254644 -52.7763932 58.9254644 -55 57 C-52.36 57 -49.72 57 -47 57 C-46.67 56.34 -46.34 55.68 -46 55 C-46.969375 54.71125 -47.93875 54.4225 -48.9375 54.125 C-52 53 -52 53 -53 51 C-49.37 51.99 -45.74 52.98 -42 54 C-40.68 51.69 -39.36 49.38 -38 47 C-39.65 48.65 -41.3 50.3 -43 52 C-43 51.34 -43 50.68 -43 50 C-44.485 50.495 -44.485 50.495 -46 51 C-46.33 49.68 -46.66 48.36 -47 47 C-46.01 47 -45.02 47 -44 47 C-43.84850702 43.37114676 -43.84850702 43.37114676 -45 40 C-44.401875 40.33 -43.80375 40.66 -43.1875 41 C-40.94613529 42.20787988 -40.94613529 42.20787988 -38 42 C-38 41.01 -38 40.02 -38 39 C-38.99 39.495 -38.99 39.495 -40 40 C-40 38.68 -40 37.36 -40 36 C-42.08694338 34.13011022 -42.08694338 34.13011022 -44.875 32.5625 C-45.86886719 31.964375 -46.86273438 31.36625 -47.88671875 30.75 C-52.18222234 28.33546348 -56.54206879 26.09841881 -61 24 C-60.34 22.68 -59.68 21.36 -59 20 C-60.32 19.34 -61.64 18.68 -63 18 C-38.88571908 19.17928187 -38.88571908 19.17928187 -30.9375 24.25 C-27.26686623 26.43676055 -26.06825077 25.97638018 -22 25 C-18.99808083 24.89631529 -16.00274218 24.93994516 -13 25 C-13 26.32 -13 27.64 -13 29 C-9.37 29 -5.74 29 -2 29 C-1.90912109 27.36804688 -1.90912109 27.36804688 -1.81640625 25.703125 C-1.33012976 17.12332911 -0.77514929 8.55962728 0 0 Z " fill="#79C5C8" transform="translate(210,272)"/>
<path d="M0 0 C0.33 0 0.66 0 1 0 C0.97905273 0.80630859 0.95810547 1.61261719 0.93652344 2.44335938 C0.85290827 6.12877727 0.80119451 9.81399494 0.75 13.5 C0.69972656 15.40265625 0.69972656 15.40265625 0.6484375 17.34375 C0.57153324 24.7265586 0.84809904 29.7982377 5 36 C9.81609503 39.93150614 13.7658404 40.6080872 19.921875 40.40625 C23.37992724 39.94985732 26.48567641 39.0442944 29.8125 38 C37.99437745 35.47972972 46.63385112 33.96748242 54.625 37.6875 C59.26947827 42.20975516 62.1235309 46.90497152 64.875 52.6875 C67.61990033 58.33269671 70.51465887 63.76843816 73.87109375 69.08203125 C75.98925002 72.68069814 76.11054366 75.60378873 76.0625 79.6875 C76.05347656 80.68136719 76.04445313 81.67523438 76.03515625 82.69921875 C76.02355469 83.45847656 76.01195312 84.21773438 76 85 C72.71822987 81.71822987 72.24594089 77.41742679 71 73 C67.37 73.33 63.74 73.66 60 74 C59.40832031 75.53269531 58.81664062 77.06539063 58.20703125 78.64453125 C57.40901951 80.70058502 56.61083306 82.75657097 55.8125 84.8125 C55.42513672 85.81732422 55.03777344 86.82214844 54.63867188 87.85742188 C52.3084507 93.84666803 49.8170037 99.72170379 47.12231445 105.5559082 C45.73690282 108.57295321 44.45151635 111.61774602 43.1875 114.6875 C42.55908203 116.20923828 42.55908203 116.20923828 41.91796875 117.76171875 C41.61503906 118.50035156 41.31210938 119.23898437 41 120 C40.67 120 40.34 120 40 120 C39.54593076 114.94700484 39.10060686 109.89334328 38.66333008 104.83886719 C38.51338301 103.11990644 38.36105842 101.40115134 38.20629883 99.68261719 C37.9841202 97.21079062 37.7705338 94.73834787 37.55859375 92.265625 C37.48781113 91.49881409 37.4170285 90.73200317 37.34410095 89.94195557 C37.04581299 86.3684942 37.00623599 83.43856438 38 80 C38 80.99 38 81.98 38 83 C49.42910866 77.17177461 56.85040295 72.44879114 61 60 C60.32646484 59.89977539 59.65292969 59.79955078 58.95898438 59.69628906 C20.40354501 53.90114634 20.40354501 53.90114634 11 47 C10.08541016 46.33291016 10.08541016 46.33291016 9.15234375 45.65234375 C4.88558662 41.98574587 2.48251348 37.55124288 0.0625 32.5625 C-0.24445801 31.94197754 -0.55141602 31.32145508 -0.86767578 30.68212891 C-3.49215186 24.90223087 -3.97868579 19.2306601 -2.0625 13.0625 C-0.85385277 8.75080102 -0.39157175 4.45155252 0 0 Z " fill="#79C6A5" transform="translate(211,179)"/>
<path d="M0 0 C0.44730469 0.38671875 0.89460938 0.7734375 1.35546875 1.171875 C4.8521026 4.18390075 8.37407463 7.14321031 12 10 C12.33 9.34 12.66 8.68 13 8 C13.94875 8.515625 14.8975 9.03125 15.875 9.5625 C17.421875 10.2740625 17.421875 10.2740625 19 11 C19.66 10.67 20.32 10.34 21 10 C22.32 10.99 23.64 11.98 25 13 C24.67 13.33 24.34 13.66 24 14 C24.99 14.99 25.98 15.98 27 17 C26.67 17.66 26.34 18.32 26 19 C27.02480469 19.53109375 28.04960937 20.0621875 29.10546875 20.609375 C30.46629356 21.3226349 31.82696242 22.03619238 33.1875 22.75 C33.86103516 23.09804688 34.53457031 23.44609375 35.22851562 23.8046875 C39.13968004 25.86520338 42.77723558 27.92116486 46 31 C46 31.99 46 32.98 46 34 C46.99 34 47.98 34 49 34 C48.01 35.65 47.02 37.3 46 39 C44.68 38.34 43.36 37.68 42 37 C41.855625 37.763125 41.71125 38.52625 41.5625 39.3125 C41 42 41 42 40 45 C43.26954202 44.43628586 44.82575883 43.50037734 47 41 C47.33 41.66 47.66 42.32 48 43 C46.35 45.31 44.7 47.62 43 50 C39.7 49.01 36.4 48.02 33 47 C34.98 47.99 36.96 48.98 39 50 C38.67 50.99 38.34 51.98 38 53 C36.02 53 34.04 53 32 53 C32.66 53.66 33.32 54.32 34 55 C33 57 33 57 30.5625 57.9375 C25.27999869 58.03017546 21.21191631 56.13967542 17 53 C11.45098336 46.94735373 8.53271796 39.91426321 5.43359375 32.421875 C3.01380572 26.76702986 0.31861705 21.46431938 -4 17 C-4.99 16.67 -5.98 16.34 -7 16 C-6.34 17.32 -5.68 18.64 -5 20 C-9.6875 16.38671875 -9.6875 16.38671875 -11 15 C-11 14.01 -11 13.02 -11 12 C-13.44496043 10.28288757 -13.44496043 10.28288757 -16 9 C-15.01 8.67 -14.02 8.34 -13 8 C-13.33 7.34 -13.66 6.68 -14 6 C-11.525 6.99 -11.525 6.99 -9 8 C-9 7.67 -9 7.34 -9 7 C-4.98166822 7 -3.15461273 8.75558315 0.0625 11.00390625 C0.701875 11.33261719 1.34125 11.66132813 2 12 C2.99 11.67 3.98 11.34 5 11 C4.67 10.34 4.34 9.68 4 9 C4.99 9 5.98 9 7 9 C6.4946875 8.51789063 5.989375 8.03578125 5.46875 7.5390625 C4.8190625 6.90742188 4.169375 6.27578125 3.5 5.625 C2.8503125 4.99851562 2.200625 4.37203125 1.53125 3.7265625 C0 2 0 2 0 0 Z " fill="#A6DDDF" transform="translate(125,277)"/>
<path d="M0 0 C1.51400391 0.01740234 1.51400391 0.01740234 3.05859375 0.03515625 C4.07050781 0.04417969 5.08242188 0.05320313 6.125 0.0625 C7.29869141 0.07990234 7.29869141 0.07990234 8.49609375 0.09765625 C8.79902344 0.83628906 9.10195313 1.57492188 9.4140625 2.3359375 C11.51722343 7.42882258 13.65440012 12.48447713 15.99609375 17.47265625 C18.43651975 22.77427135 20.37755881 28.20110322 22.29296875 33.7109375 C23.6735118 37.59707655 25.20385485 41.40393177 26.796875 45.20703125 C27.49609375 47.09765625 27.49609375 47.09765625 27.49609375 49.09765625 C23.53609375 49.09765625 19.57609375 49.09765625 15.49609375 49.09765625 C12.49609375 41.34765625 12.49609375 41.34765625 12.49609375 39.09765625 C6.22609375 39.42765625 -0.04390625 39.75765625 -6.50390625 40.09765625 C-7.49390625 43.06765625 -8.48390625 46.03765625 -9.50390625 49.09765625 C-13.79390625 49.09765625 -18.08390625 49.09765625 -22.50390625 49.09765625 C-20.4284153 42.87118341 -18.03971029 36.82545435 -15.57714844 30.74755859 C-14.77170565 28.75886978 -13.96795145 26.76949694 -13.16503906 24.77978516 C-11.92750054 21.71397103 -10.68778459 18.6490559 -9.44577026 15.58505249 C-8.69552892 13.73283441 -7.94748964 11.87972489 -7.19946289 10.02661133 C-6.73660889 8.88732178 -6.27375488 7.74803223 -5.796875 6.57421875 C-5.37946045 5.54377441 -4.9620459 4.51333008 -4.53198242 3.45166016 C-3.07693168 0.12000514 -3.07693168 0.12000514 0 0 Z " fill="#020504" transform="translate(273.50390625,251.90234375)"/>
<path d="M0 0 C3.84535398 3.55113651 7.03979821 6.73059994 8 12 C5 13 5 13 4 13 C4.99 14.32 5.98 15.64 7 17 C6.67 17.66 6.34 18.32 6 19 C5.41992188 18.30132812 4.83984375 17.60265625 4.2421875 16.8828125 C3.46101563 15.97273438 2.67984375 15.06265625 1.875 14.125 C1.10929687 13.22007812 0.34359375 12.31515625 -0.4453125 11.3828125 C-3.22694207 8.78832621 -5.34709892 7.92116636 -9 7 C-9 6.34 -9 5.68 -9 5 C-16.14234614 3.30004377 -22.91632142 2.64799529 -30.25 2.6875 C-31.249104 2.68878906 -32.24820801 2.69007813 -33.27758789 2.69140625 C-41.17362327 2.79343045 -48.39314842 3.78518013 -56 6 C-56 6.66 -56 7.32 -56 8 C-57.11375 8.4125 -58.2275 8.825 -59.375 9.25 C-62.37631898 10.49544958 -62.37631898 10.49544958 -64.25 13.125 C-64.4975 13.74375 -64.745 14.3625 -65 15 C-65.99 15.33 -66.98 15.66 -68 16 C-71.1652568 21.66854883 -71.59985174 27.03967496 -72 33.4375 C-72.4257349 40.21539309 -73.30309106 45.73408384 -76 52 C-76.66 51.34 -77.32 50.68 -78 50 C-77.67 49.01 -77.34 48.02 -77 47 C-78.65 47 -80.3 47 -82 47 C-81.95556407 42.44608365 -81.88544172 37.8935168 -81.79248047 33.34033203 C-81.76442213 31.79454343 -81.74313294 30.24861539 -81.72900391 28.70263672 C-81.63619326 19.11839088 -81.49446024 11.70410615 -75.31640625 3.86328125 C-57.15083117 -12.19848558 -19.48410882 -14.27769941 0 0 Z " fill="#E7E7E7" transform="translate(195,154)"/>
<path d="M0 0 C3.97849289 1.3261643 6.18689707 2.91466131 9 6 C9.7425 6.70125 10.485 7.4025 11.25 8.125 C13 10 13 10 13 12 C13.99 12.66 14.98 13.32 16 14 C15.34 12.68 14.68 11.36 14 10 C23.88635672 15.39714372 27.61230417 26.03278773 31.80371094 35.95483398 C35.23502841 43.98161068 38.4722582 48.22624128 46.44921875 51.99609375 C49.70653564 53.27806992 52.518039 53.77291559 56 54 C54 56 54 56 51 58.375 C47.98524211 60.66928227 47.98524211 60.66928227 46.9375 63.1875 C46 65 46 65 43.77734375 66.12109375 C38.13174198 67.90767659 31.48567284 67.09248639 26.1875 64.4375 C20.28232084 60.50544561 17.0038428 55.12558565 15.43579102 48.28808594 C14.45919703 43.1605572 13.90056149 37.96238923 13.3203125 32.77734375 C12.38231423 25.45456178 10.6166721 19.03414978 4.9375 14 C2.17898658 11.71860451 2.17898658 11.71860451 -1 12 C-2.7825908 11.14844389 -4.52944838 10.22081404 -6.25 9.25 C-7.22066406 8.70601563 -8.19132812 8.16203125 -9.19140625 7.6015625 C-10.11824219 7.07304687 -11.04507813 6.54453125 -12 6 C-12.75152344 5.57460938 -13.50304687 5.14921875 -14.27734375 4.7109375 C-15.85531031 3.81385222 -17.42833194 2.90807488 -19 2 C-18.34 1.67 -17.68 1.34 -17 1 C-16.195625 1.350625 -15.39125 1.70125 -14.5625 2.0625 C-13.2940625 2.5265625 -13.2940625 2.5265625 -12 3 C-11.01 2.34 -10.02 1.68 -9 1 C-7.32457024 1.28604898 -5.65614657 1.61781233 -4 2 C-3.34 1.67 -2.68 1.34 -2 1 C-1.34 1 -0.68 1 0 1 C0 0.67 0 0.34 0 0 Z " fill="#C0E6E7" transform="translate(103,281)"/>
<path d="M0 0 C0.33 1.32 0.66 2.64 1 4 C1.66 4 2.32 4 3 4 C3.33 2.68 3.66 1.36 4 0 C3.67 2.97 3.34 5.94 3 9 C2.34 9 1.68 9 1 9 C1.12568359 9.90492188 1.12568359 9.90492188 1.25390625 10.828125 C1.35574219 11.62734375 1.45757812 12.4265625 1.5625 13.25 C1.66691406 14.03890625 1.77132812 14.8278125 1.87890625 15.640625 C2 18 2 18 1.44311523 19.90820312 C0.56703097 24.04390007 2.90028595 28.51851789 4.26171875 32.44921875 C6.38367717 39.0261175 6.52683325 43.86400426 3.40625 50.2734375 C2.7771875 51.29695313 2.148125 52.32046875 1.5 53.375 C-2.18165783 59.95643781 -4.2817223 65.1970626 -2.2890625 72.6640625 C-0.39719106 77.79481785 1.87143005 83.43571502 7 86 C7 86.66 7 87.32 7 88 C3.78475695 86.59155282 1.67816132 84.89655214 -0.75 82.375 C-1.67039063 81.42753906 -1.67039063 81.42753906 -2.609375 80.4609375 C-3.06828125 79.97882813 -3.5271875 79.49671875 -4 79 C-3.57847656 79.48210937 -3.15695313 79.96421875 -2.72265625 80.4609375 C-1.90087891 81.40839844 -1.90087891 81.40839844 -1.0625 82.375 C-0.51722656 83.00148438 0.02804688 83.62796875 0.58984375 84.2734375 C2 86 2 86 3 88 C-4.26824647 86.66501595 -8.0755232 83.07706472 -12.328125 77.1484375 C-15.53248997 71.66491153 -15.88502871 66.22073063 -15 60 C-14.08146428 57.20084157 -13.00254968 54.50627959 -11.89453125 51.77734375 C-9.99767798 45.88798708 -10.49583032 39.9133388 -12 34 C-13.50171817 23.28319308 -9.6471399 15.3416996 -5 6 C-3.68 6.33 -2.36 6.66 -1 7 C-0.67 4.69 -0.34 2.38 0 0 Z " fill="#D5E8E8" transform="translate(130,199)"/>
<path d="M0 0 C3.4747827 2.68505936 3.91716145 5.87167803 5 10 C5.556875 11.11375 6.11375 12.2275 6.6875 13.375 C9.66213954 21.03695032 7.99314993 31.47506994 5.95703125 39.25 C5.19575112 42.2329752 4.76688252 44.47271054 4.875 47.5 C4.91625 48.655 4.9575 49.81 5 51 C4.34 51 3.68 51 3 51 C1.96953278 49.21385682 0.95086764 47.42089982 -0.0625 45.625 C-0.63097656 44.62726563 -1.19945312 43.62953125 -1.78515625 42.6015625 C-2.18605469 41.74304688 -2.58695312 40.88453125 -3 40 C-2.505 39.01 -2.505 39.01 -2 38 C-1.34 38.33 -0.68 38.66 0 39 C-1.22537444 30.8162493 -6.59589921 24.03987736 -12 18 C-10.02 18.495 -10.02 18.495 -8 19 C-8.99 18.34 -9.98 17.68 -11 17 C-11 16.34 -11 15.68 -11 15 C-11.73476562 14.71382812 -12.46953125 14.42765625 -13.2265625 14.1328125 C-16 13 -16 13 -18.0859375 11.9296875 C-29.62884255 6.61128415 -45.50606278 7.25377195 -57.5625 10.75 C-65.47547719 13.72386528 -71.64358897 17.81589573 -75.25 25.75 C-76.26234006 30.13680693 -76.66327263 34.51620929 -77 39 C-76.67 39 -76.34 39 -76 39 C-75.94608007 40.79133978 -75.90724429 42.58313899 -75.875 44.375 C-75.85179687 45.37273437 -75.82859375 46.37046875 -75.8046875 47.3984375 C-76 50 -76 50 -78 52 C-78 50.02 -78 48.04 -78 46 C-78.33 46 -78.66 46 -79 46 C-79 43.03 -79 40.06 -79 37 C-79.66 37 -80.32 37 -81 37 C-80.97679688 37.61488281 -80.95359375 38.22976562 -80.9296875 38.86328125 C-80.91164063 39.67152344 -80.89359375 40.47976562 -80.875 41.3125 C-80.85179688 42.11300781 -80.82859375 42.91351563 -80.8046875 43.73828125 C-81 46 -81 46 -83 49 C-82.77826285 44.99791491 -82.51750941 40.99926562 -82.25 37 C-82.188125 35.87464844 -82.12625 34.74929687 -82.0625 33.58984375 C-81.5846041 26.77982711 -80.774732 21.75714521 -77 16 C-76.31583008 15.66355469 -75.63166016 15.32710937 -74.92675781 14.98046875 C-72.64421476 14.10279341 -72.64421476 14.10279341 -72 11 C-69 9 -69 9 -65 9 C-65 8.34 -65 7.68 -65 7 C-63.60550891 6.516941 -62.20933293 6.03874483 -60.8125 5.5625 C-60.03519531 5.29566406 -59.25789063 5.02882812 -58.45703125 4.75390625 C-52.23205272 2.84385719 -46.27504869 2.78299323 -39.8125 2.75 C-38.82185547 2.729375 -37.83121094 2.70875 -36.81054688 2.6875 C-30.0452416 2.65200987 -24.35409555 3.67859741 -18 6 C-18 6.66 -18 7.32 -18 8 C-16.906875 8.268125 -15.81375 8.53625 -14.6875 8.8125 C-9.86642269 10.36505032 -9.86642269 10.36505032 -8 13 C-8 13.66 -8 14.32 -8 15 C-6.68 15.66 -5.36 16.32 -4 17 C-4.99 15.68 -5.98 14.36 -7 13 C-6.67 12.34 -6.34 11.68 -6 11 C-5.01 11.99 -5.01 11.99 -4 13 C-3.34 12.34 -2.68 11.68 -2 11 C-2.99 9.68 -3.98 8.36 -5 7 C-4.67 6.34 -4.34 5.68 -4 5 C-3.01 5 -2.02 5 -1 5 C-1.495 3.02 -1.495 3.02 -2 1 C-1.34 0.67 -0.68 0.34 0 0 Z " fill="#D9D9D9" transform="translate(204,153)"/>
<path d="M0 0 C0.66 0.33 1.32 0.66 2 1 C1.46890625 1.4846875 0.9378125 1.969375 0.390625 2.46875 C-0.66898438 3.47421875 -0.66898438 3.47421875 -1.75 4.5 C-2.44609375 5.1496875 -3.1421875 5.799375 -3.859375 6.46875 C-10.5291348 14.35561925 -10.63110878 21.76613912 -10.52148438 31.63549805 C-10.50007651 33.92930222 -10.52132658 36.21996427 -10.546875 38.51367188 C-10.56776936 48.00493449 -10.01996138 55.55976993 -3.421875 62.84765625 C-2.09929687 63.94400391 -2.09929687 63.94400391 -0.75 65.0625 C0.58804688 66.19365234 0.58804688 66.19365234 1.953125 67.34765625 C2.62859375 67.89292969 3.3040625 68.43820312 4 69 C1.07994694 70.46002653 -0.76534563 70.06289376 -3.87109375 69.23046875 C-11.186715 66.35353905 -18.56079147 60.18598855 -22 53 C-25.76276487 43.18010143 -27.20152147 29.55257164 -23.875 19.375 C-19.89695816 12.21452469 -14.68587027 7.63259539 -8 3 C-7.34 3.33 -6.68 3.66 -6 4 C-6.99 5.32 -7.98 6.64 -9 8 C-6.03 5.36 -3.06 2.72 0 0 Z " fill="#EAEBEB" transform="translate(101,214)"/>
<path d="M0 0 C24.11428092 1.17928187 24.11428092 1.17928187 32.0625 6.25 C35.73313377 8.43676055 36.93174923 7.97638018 41 7 C44.00191917 6.89631529 46.99725782 6.93994516 50 7 C50 7.66 50 8.32 50 9 C48.906875 8.938125 47.81375 8.87625 46.6875 8.8125 C43.07873917 8.64402086 43.07873917 8.64402086 41.0625 10.5 C40.711875 10.995 40.36125 11.49 40 12 C40.598125 11.649375 41.19625 11.29875 41.8125 10.9375 C44 10 44 10 47 11 C47.495 11.99 47.495 11.99 48 13 C46.35 13.99 44.7 14.98 43 16 C43.495 18.475 43.495 18.475 44 21 C44.66 21 45.32 21 46 21 C45.6875 22.9375 45.6875 22.9375 45 25 C44.01 25.33 43.02 25.66 42 26 C42.33 24.68 42.66 23.36 43 22 C42.01 22.33 41.02 22.66 40 23 C40 21.68 40 20.36 40 19 C39.01 19.495 39.01 19.495 38 20 C38 19.01 38 18.02 38 17 C36.35 20.63 34.7 24.26 33 28 C32.01 27.34 31.02 26.68 30 26 C29.67 27.32 29.34 28.64 29 30 C27.35 29.67 25.7 29.34 24 29 C22.02 31.475 22.02 31.475 20 34 C20 33.34 20 32.68 20 32 C18.515 32.495 18.515 32.495 17 33 C16.67 31.68 16.34 30.36 16 29 C16.99 29 17.98 29 19 29 C19.15149298 25.37114676 19.15149298 25.37114676 18 22 C18.598125 22.33 19.19625 22.66 19.8125 23 C22.05386471 24.20787988 22.05386471 24.20787988 25 24 C25 23.01 25 22.02 25 21 C24.34 21.33 23.68 21.66 23 22 C23 20.68 23 19.36 23 18 C20.91305662 16.13011022 20.91305662 16.13011022 18.125 14.5625 C17.13113281 13.964375 16.13726562 13.36625 15.11328125 12.75 C10.81777766 10.33546348 6.45793121 8.09841881 2 6 C2.66 4.68 3.32 3.36 4 2 C2.68 1.34 1.36 0.68 0 0 Z " fill="#61D5D9" transform="translate(147,290)"/>
<path d="M0 0 C0.67095703 0.58007812 0.67095703 0.58007812 1.35546875 1.171875 C4.8521026 4.18390075 8.37407463 7.14321031 12 10 C12.33 9.34 12.66 8.68 13 8 C13.94875 8.515625 14.8975 9.03125 15.875 9.5625 C17.421875 10.2740625 17.421875 10.2740625 19 11 C19.66 10.67 20.32 10.34 21 10 C22.32 10.99 23.64 11.98 25 13 C24.67 13.33 24.34 13.66 24 14 C24.99 14.99 25.98 15.98 27 17 C26.67 17.66 26.34 18.32 26 19 C27.02480469 19.53109375 28.04960937 20.0621875 29.10546875 20.609375 C30.46629356 21.3226349 31.82696242 22.03619238 33.1875 22.75 C33.86103516 23.09804688 34.53457031 23.44609375 35.22851562 23.8046875 C39.13968004 25.86520338 42.77723558 27.92116486 46 31 C46 31.99 46 32.98 46 34 C46.99 34 47.98 34 49 34 C48.01 35.65 47.02 37.3 46 39 C44.68 38.34 43.36 37.68 42 37 C41.67 38.65 41.34 40.3 41 42 C38.77734375 42.26171875 38.77734375 42.26171875 36 42 C33.75390625 40.20703125 33.75390625 40.20703125 31.5625 37.8125 C28.9563681 35.04076106 26.42887136 32.41590117 23.4375 30.0625 C22.633125 29.381875 21.82875 28.70125 21 28 C21 27.34 21 26.68 21 26 C20.34 26 19.68 26 19 26 C19 25.34 19 24.68 19 24 C18.195625 23.6596875 18.195625 23.6596875 17.375 23.3125 C14.21499137 21.56617944 11.7323017 19.3597151 9 17 C9.33 15.68 9.66 14.36 10 13 C9.195625 12.71125 8.39125 12.4225 7.5625 12.125 C5 11 5 11 4 9 C4.99 9 5.98 9 7 9 C6.4946875 8.51789063 5.989375 8.03578125 5.46875 7.5390625 C4.49421875 6.59160156 4.49421875 6.59160156 3.5 5.625 C2.8503125 4.99851562 2.200625 4.37203125 1.53125 3.7265625 C0 2 0 2 0 0 Z " fill="#7FDCDF" transform="translate(125,277)"/>
<path d="M0 0 C3.4747827 2.68505936 3.91716145 5.87167803 5 10 C5.556875 11.11375 6.11375 12.2275 6.6875 13.375 C9.66213954 21.03695032 7.99314993 31.47506994 5.95703125 39.25 C5.19575112 42.2329752 4.76688252 44.47271054 4.875 47.5 C4.91625 48.655 4.9575 49.81 5 51 C4.34 51 3.68 51 3 51 C1.96953278 49.21385682 0.95086764 47.42089982 -0.0625 45.625 C-0.63097656 44.62726563 -1.19945312 43.62953125 -1.78515625 42.6015625 C-2.18605469 41.74304688 -2.58695313 40.88453125 -3 40 C-2.67 39.34 -2.34 38.68 -2 38 C-1.34 38.33 -0.68 38.66 0 39 C-1.22537444 30.8162493 -6.59589921 24.03987736 -12 18 C-10.68 18.33 -9.36 18.66 -8 19 C-8.33 18.34 -8.66 17.68 -9 17 C-8.34 17 -7.68 17 -7 17 C-6.67 16.34 -6.34 15.68 -6 15 C-5.01 15.99 -4.02 16.98 -3 18 C-4.32 16.35 -5.64 14.7 -7 13 C-6.67 12.34 -6.34 11.68 -6 11 C-5.34 11.66 -4.68 12.32 -4 13 C-3.34 12.34 -2.68 11.68 -2 11 C-2.99 9.68 -3.98 8.36 -5 7 C-4.67 6.34 -4.34 5.68 -4 5 C-3.01 5 -2.02 5 -1 5 C-1.33 3.68 -1.66 2.36 -2 1 C-1.34 0.67 -0.68 0.34 0 0 Z " fill="#CFCFCF" transform="translate(204,153)"/>
<path d="M0 0 C-1.00313062 2.23775292 -1.84476835 3.8507388 -3.625 5.5625 C-5.34561132 7.02978279 -5.34561132 7.02978279 -5 10 C-5.99 10.66 -6.98 11.32 -8 12 C-8 12.99 -8 13.98 -8 15 C-6.35 14.34 -4.7 13.68 -3 13 C-6.47553708 25.51758477 -11.42377277 37.29183905 -17 49 C-17.33 49 -17.66 49 -18 49 C-18.45406924 43.94700484 -18.89939314 38.89334328 -19.33666992 33.83886719 C-19.48661699 32.11990644 -19.63894158 30.40115134 -19.79370117 28.68261719 C-20.0158798 26.21079062 -20.2294662 23.73834787 -20.44140625 21.265625 C-20.51218887 20.49881409 -20.5829715 19.73200317 -20.65589905 18.94195557 C-20.95418701 15.3684942 -20.99376401 12.43856438 -20 9 C-20 9.99 -20 10.98 -20 12 C-15.06525449 9.4835475 -4.77428746 0 0 0 Z " fill="#53BCAB" transform="translate(269,250)"/>
<path d="M0 0 C0 3.98000953 -1.48236191 5.29982336 -3.875 8.4375 C-7.90731371 13.74888096 -10.27495104 16.90301181 -10.16015625 23.68359375 C-10.14919922 24.77607422 -10.13824219 25.86855469 -10.12695312 26.99414062 C-10.10568359 28.13044922 -10.08441406 29.26675781 -10.0625 30.4375 C-10.02794504 32.68613184 -9.99783384 34.93483736 -9.97265625 37.18359375 C-9.95468994 38.17931396 -9.93672363 39.17503418 -9.91821289 40.20092773 C-9.99786207 42.92683176 -10.41174104 45.34377811 -11 48 C-11.62367201 54.95839776 -12.06328024 61.26415898 -7.77734375 67.078125 C-4.12716096 71.02513584 -0.11493662 74.54824734 4 78 C-1.9995556 78 -7.60221621 72.30395747 -11.796875 68.2734375 C-14.03339687 65.70801536 -15.60486174 63.42453157 -16 60 C-16.66 60 -17.32 60 -18 60 C-18.33 56.7 -18.66 53.4 -19 50 C-18.34 50 -17.68 50 -17 50 C-17.02094727 49.0620459 -17.04189453 48.1240918 -17.06347656 47.15771484 C-17.13189373 43.65761375 -17.18191586 40.15822934 -17.21972656 36.65771484 C-17.23976791 35.14653264 -17.26700905 33.63542728 -17.30175781 32.12451172 C-17.35061109 29.94479357 -17.37304224 27.76610569 -17.390625 25.5859375 C-17.41157227 24.2767334 -17.43251953 22.9675293 -17.45410156 21.61865234 C-16.64004357 15.13157305 -12.71496863 11.44144348 -7.9375 7.3125 C-3.863361 3.76831159 -3.863361 3.76831159 0 0 Z " fill="#EEF1F2" transform="translate(115,208)"/>
<path d="M0 0 C2.19679861 3.17369357 3.65813396 6.38728373 5 10 C1.91201497 7.54364827 -0.63849067 5.48577816 -3 2.3125 C-5.43021463 -0.49743566 -7.44597737 -1.11149434 -11 -2 C-11 -2.66 -11 -3.32 -11 -4 C-18.14234614 -5.69995623 -24.91632142 -6.35200471 -32.25 -6.3125 C-33.249104 -6.31121094 -34.24820801 -6.30992187 -35.27758789 -6.30859375 C-43.17362327 -6.20656955 -50.39314842 -5.21481987 -58 -3 C-58 -2.34 -58 -1.68 -58 -1 C-59.11375 -0.5875 -60.2275 -0.175 -61.375 0.25 C-64.37631898 1.49544958 -64.37631898 1.49544958 -66.25 4.125 C-66.4975 4.74375 -66.745 5.3625 -67 6 C-67.99 6.33 -68.98 6.66 -70 7 C-73.1652568 12.66854883 -73.59985174 18.03967496 -74 24.4375 C-74.4257349 31.21539309 -75.30309106 36.73408384 -78 43 C-78.66 42.34 -79.32 41.68 -80 41 C-79.67 40.01 -79.34 39.02 -79 38 C-79.66 38 -80.32 38 -81 38 C-80.34 34.04 -79.68 30.08 -79 26 C-78.67 26 -78.34 26 -78 26 C-77.90203125 24.91460937 -77.8040625 23.82921875 -77.703125 22.7109375 C-77.55295324 21.26553435 -77.40186268 19.82022647 -77.25 18.375 C-77.1571875 17.30572266 -77.1571875 17.30572266 -77.0625 16.21484375 C-76.14186479 7.85240727 -71.23417019 2.33203325 -65 -3 C-59.87096774 -6 -59.87096774 -6 -57 -6 C-57 -6.66 -57 -7.32 -57 -8 C-37.16700211 -10.98963091 -16.94357188 -12.99272335 0 0 Z " fill="#F1F1F1" transform="translate(197,163)"/>
<path d="M0 0 C0.66 0.33 1.32 0.66 2 1 C1.54109375 1.42410156 1.0821875 1.84820312 0.609375 2.28515625 C-5.62522621 8.24470153 -9.68835708 13.76714163 -10.1328125 22.65625 C-10.55873022 42.47613241 -10.55873022 42.47613241 -1.6953125 59.42578125 C1.01442265 61.94196389 3.91498726 63.96389159 7 66 C6.01 66.495 6.01 66.495 5 67 C-3.51866591 62.83249346 -11.27996757 56.86258107 -14.875 47.875 C-17.94561042 38.8186427 -18.95382433 25.57525152 -15.875 16.375 C-11.89695816 9.21452469 -6.68587027 4.63259539 0 0 Z " fill="#F5F5F5" transform="translate(93,217)"/>
<path d="M0 0 C3.71599191 -0.20086443 4.77208445 -0.1519437 8 2 C8 3.32 8 4.64 8 6 C9.97507898 7.94600057 9.97507898 7.94600057 12.5 9.625 C14.03115962 10.70720849 15.53983642 11.82375712 17 13 C17 13.66 17 14.32 17 15 C17.66 15 18.32 15 19 15 C19 15.66 19 16.32 19 17 C20.32 17.66 21.64 18.32 23 19 C23 19.66 23 20.32 23 21 C23.5878125 21.25910156 24.175625 21.51820313 24.78125 21.78515625 C27.15450683 23.08459793 28.6462093 24.47838029 30.5 26.4375 C33.78609723 29.81487771 36.46464411 32.4882147 41 34 C42.32 32.68 43.64 31.36 45 30 C45.495 30.99 45.495 30.99 46 32 C44.35 34.31 42.7 36.62 41 39 C27.90372363 34.89650007 20.92195453 29.04075566 12.9375 18 C9.53369808 13.33039527 6.08411783 8.82838238 2.20141602 4.54296875 C1 3 1 3 0 0 Z " fill="#8BDBDE" transform="translate(127,288)"/>
<path d="M0 0 C4.33674259 1.44558086 5.38307515 4.73832019 7.4375 8.5625 C7.81970703 9.25408203 8.20191406 9.94566406 8.59570312 10.65820312 C9.75050787 12.76194759 10.8757142 14.87982057 12 17 C12.38526855 17.69335449 12.77053711 18.38670898 13.16748047 19.10107422 C15.38089322 23.22094438 16.48935359 26.21292819 16.25 31 C16.21390625 31.94875 16.1778125 32.8975 16.140625 33.875 C16.07101562 34.926875 16.07101562 34.926875 16 36 C12.71822987 32.71822987 12.24594089 28.41742679 11 24 C7.37 24.33 3.74 24.66 0 25 C-0.7734375 27.35125 -0.7734375 27.35125 -1.5625 29.75 C-3.0288912 33.45539711 -4.15179162 35.6499811 -7.625 37.6875 C-8.73875 38.120625 -9.8525 38.55375 -11 39 C-11.66 38.67 -12.32 38.34 -13 38 C-12.01 37.34 -11.02 36.68 -10 36 C-10 35.01 -10 34.02 -10 33 C-9.01 32.34 -8.02 31.68 -7 31 C-7 30.01 -7 29.02 -7 28 C-6.360625 27.38125 -5.72125 26.7625 -5.0625 26.125 C-2.65201932 23.64147445 -2.49115608 22.35623323 -2 19 C-1.36562656 17.3207762 -0.70710678 15.64991582 0 14 C0.66 14 1.32 14 2 14 C1.85866501 12.22880197 1.71176792 10.45804713 1.5625 8.6875 C1.48128906 7.70136719 1.40007812 6.71523437 1.31640625 5.69921875 C1.08187441 2.90624401 1.08187441 2.90624401 0 0 Z " fill="#53AF9C" transform="translate(271,228)"/>
<path d="M0 0 C7.96058097 4.57733406 13.116133 11.7293967 18.4375 19.0625 C23.74706824 26.23957155 29.62097577 32.5624516 38 36 C37.67 36.99 37.34 37.98 37 39 C30.51611003 38.97342668 25.89364956 38.16628836 20.87109375 33.921875 C15.86091715 28.77572283 12.35507773 22.77415904 9.0625 16.4375 C6.13699816 10.87191113 2.36737234 6.48930406 -2 2 C-1.34 1.34 -0.68 0.68 0 0 Z " fill="#99E1E3" transform="translate(126,291)"/>
<path d="M0 0 C0.33 0 0.66 0 1 0 C2.42562661 7.36573747 1.67116683 12.39666746 -2 19 C-3.32421875 20.7734375 -3.32421875 20.7734375 -5 22 C-7.41015625 22.328125 -7.41015625 22.328125 -10.0625 22.25 C-10.94035156 22.23453125 -11.81820312 22.2190625 -12.72265625 22.203125 C-15 22 -15 22 -17 21 C-16 19 -15 17 -14 15 C-14.928125 15.99 -14.928125 15.99 -15.875 17 C-18 19 -18 19 -20 19 C-20 19.66 -20 20.32 -20 21 C-20.66 21 -21.32 21 -22 21 C-22 20.34 -22 19.68 -22 19 C-22.99 18.67 -23.98 18.34 -25 18 C-24.01 17.67 -23.02 17.34 -22 17 C-21.731875 16.4225 -21.46375 15.845 -21.1875 15.25 C-19.44866056 11.95535686 -16.92354664 10.28799302 -14 8 C-14.33 9.32 -14.66 10.64 -15 12 C-13.02 9.69 -11.04 7.38 -9 5 C-8.34 5.33 -7.68 5.66 -7 6 C-6.01 5.01 -5.02 4.02 -4 3 C-3.67 3.33 -3.34 3.66 -3 4 C-2.525625 3.34 -2.05125 2.68 -1.5625 2 C-1.046875 1.34 -0.53125 0.68 0 0 Z " fill="#99D2D5" transform="translate(216,301)"/>
<path d="M0 0 C0 3.90838866 -1.50567876 5.11594107 -4 8 C-2.906875 7.95875 -1.81375 7.9175 -0.6875 7.875 C3 8 3 8 6 10 C2.26206718 10.89519049 -0.98349423 10.99436549 -4.8125 10.8125 C-19.0532376 10.7642808 -30.24156594 15.39417277 -42 23 C-42.94746094 23.61101562 -43.89492187 24.22203125 -44.87109375 24.8515625 C-46.93329429 26.20920467 -48.97594694 27.58637564 -51 29 C-51.99 28.34 -52.98 27.68 -54 27 C-53.13375 26.87625 -53.13375 26.87625 -52.25 26.75 C-49.3840696 25.79468987 -48.0009236 24.21530827 -46 22 C-46.99 21.34 -47.98 20.68 -49 20 C-47.68 20 -46.36 20 -45 20 C-45.7763932 16.9254644 -45.7763932 16.9254644 -48 15 C-45.36 15 -42.72 15 -40 15 C-39.67 14.34 -39.34 13.68 -39 13 C-39.969375 12.71125 -40.93875 12.4225 -41.9375 12.125 C-45 11 -45 11 -46 9 C-45.22914063 9.22816406 -44.45828125 9.45632813 -43.6640625 9.69140625 C-42.66117188 9.97886719 -41.65828125 10.26632812 -40.625 10.5625 C-39.12839844 10.99755859 -39.12839844 10.99755859 -37.6015625 11.44140625 C-35.0322836 12.27656482 -35.0322836 12.27656482 -33 11 C-33 11.66 -33 12.32 -33 13 C-31.02 12.67 -29.04 12.34 -27 12 C-27.99 11.34 -28.98 10.68 -30 10 C-29.360625 9.87625 -28.72125 9.7525 -28.0625 9.625 C-27.381875 9.41875 -26.70125 9.2125 -26 9 C-25.67 8.34 -25.34 7.68 -25 7 C-23.88625 7.0928125 -23.88625 7.0928125 -22.75 7.1875 C-19.54616994 6.96905704 -18.35968744 6.09749995 -16 4 C-15.505 5.485 -15.505 5.485 -15 7 C-14.01 7.33 -13.02 7.66 -12 8 C-12 7.34 -12 6.68 -12 6 C-11.01 6 -10.02 6 -9 6 C-9 6.66 -9 7.32 -9 8 C-8.34 8 -7.68 8 -7 8 C-7 7.34 -7 6.68 -7 6 C-5.46875 4.4921875 -5.46875 4.4921875 -3.5 2.875 C-2.8503125 2.33617187 -2.200625 1.79734375 -1.53125 1.2421875 C-1.0259375 0.83226562 -0.520625 0.42234375 0 0 Z " fill="#6AA9AC" transform="translate(203,314)"/>
<path d="M0 0 C0.33 0 0.66 0 1 0 C0.97905273 0.80630859 0.95810547 1.61261719 0.93652344 2.44335938 C0.85290827 6.12877727 0.80119451 9.81399494 0.75 13.5 C0.69972656 15.40265625 0.69972656 15.40265625 0.6484375 17.34375 C0.57153324 24.7265586 0.84809904 29.7982377 5 36 C9.89061825 39.99234143 13.84033888 40.55037154 20.08203125 40.34375 C24.07794454 39.87301323 27.77711289 38.82201708 31.58984375 37.55859375 C34 37 34 37 38 38 C34.04 39.32 30.08 40.64 26 42 C26 42.33 26 42.66 26 43 C28.64 43 31.28 43 34 43 C34.33 43.66 34.66 44.32 35 45 C37.32156597 45.40729228 39.6568787 45.74438677 42 46 C42 46.33 42 46.66 42 47 C34.08 47 26.16 47 18 47 C20.31 47.66 22.62 48.32 25 49 C22 51 22 51 18.3125 50.5625 C10.90688393 48.42521742 5.81282058 42.62513918 2.09765625 36.1015625 C1.73542969 35.40804687 1.37320313 34.71453125 1 34 C0.41025391 32.89785156 0.41025391 32.89785156 -0.19140625 31.7734375 C-3.7691354 24.51825155 -3.6815148 18.83813435 -1.51171875 11.09765625 C-0.62222215 7.4513992 -0.32830724 3.73233493 0 0 Z " fill="#61987F" transform="translate(211,179)"/>
<path d="M0 0 C1.98213626 1.40645495 3.8424398 2.7476787 5.55859375 4.46875 C5.55859375 5.12875 5.55859375 5.78875 5.55859375 6.46875 C3.45216267 5.42758498 1.36555596 4.36472964 -0.703125 3.25 C-10.99227375 -2.18452623 -21.25316767 -4.41947738 -32.69140625 -1.28125 C-36.83116333 0.10084213 -40.06472952 1.69814345 -43.44140625 4.46875 C-43.77140625 5.45875 -44.10140625 6.44875 -44.44140625 7.46875 C-45.43140625 7.79875 -46.42140625 8.12875 -47.44140625 8.46875 C-51.35217199 14.31749164 -53.22508892 20.61314324 -54.44140625 27.46875 C-55.10140625 27.13875 -55.76140625 26.80875 -56.44140625 26.46875 C-55.85080015 17.31435542 -53.66680063 8.89022149 -47.28515625 2.00390625 C-34.46532489 -8.670233 -13.76454616 -8.63312335 0 0 Z " fill="#F4F4F4" transform="translate(190.44140625,177.53125)"/>
<path d="M0 0 C4.23429756 1.31061591 8.07407404 2.94356259 12 5 C11.67 5.66 11.34 6.32 11 7 C12.02480469 7.53109375 13.04960937 8.0621875 14.10546875 8.609375 C15.46629356 9.3226349 16.82696242 10.03619238 18.1875 10.75 C18.86103516 11.09804688 19.53457031 11.44609375 20.22851562 11.8046875 C24.13968004 13.86520338 27.77723558 15.92116486 31 19 C31 19.99 31 20.98 31 22 C31.99 22 32.98 22 34 22 C33.01 23.65 32.02 25.3 31 27 C25.95906802 24.26789183 21.56175775 21.24362336 17.125 17.625 C13.10039099 14.3740443 9.12705713 11.36544086 4.6875 8.6875 C1.52729961 6.68018753 1.12207128 6.38775584 -0.0625 2.625 C-0.041875 1.75875 -0.02125 0.8925 0 0 Z " fill="#6ED4D8" transform="translate(140,289)"/>
<path d="M0 0 C23.09260266 2.66344129 23.09260266 2.66344129 28.6875 6.1875 C32.63912856 8.34971185 33.73249191 8.02420194 38 7 C41.00191917 6.89631529 43.99725782 6.93994516 47 7 C47 7.66 47 8.32 47 9 C45.948125 8.9175 44.89625 8.835 43.8125 8.75 C39.37770762 9.04080606 38.23214709 10.11727421 35 13 C32.6875 13.75 32.6875 13.75 31 14 C31 13.34 31 12.68 31 12 C28.36 13.98 25.72 15.96 23 18 C23.33 16.35 23.66 14.7 24 13 C18.35190911 8.48152729 11.88781635 6.92123067 5 5 C5.99 4.34 6.98 3.68 8 3 C5.36 2.34 2.72 1.68 0 1 C0 0.67 0 0.34 0 0 Z " fill="#52C4C9" transform="translate(150,290)"/>
<path d="M0 0 C0.33 0.99 0.66 1.98 1 3 C1.66 3 2.32 3 3 3 C3.33 2.01 3.66 1.02 4 0 C4 0.99 4 1.98 4 3 C4.66 3 5.32 3 6 3 C6.33 2.34 6.66 1.68 7 1 C6.67 2.98 6.34 4.96 6 7 C6.99 6.01 7.98 5.02 9 4 C9 4.66 9 5.32 9 6 C9.66 6 10.32 6 11 6 C11.33 5.34 11.66 4.68 12 4 C11.46972205 8.5073626 9.80388725 11.4539073 7 15 C6.01 15 5.02 15 4 15 C2.34496905 16.0772721 2.34496905 16.0772721 0.8125 17.5 C-0.115625 18.325 -1.04375 19.15 -2 20 C-0.66666667 17.33333333 0.66666667 14.66666667 2 12 C1.38511719 12.6496875 0.77023438 13.299375 0.13671875 13.96875 C-0.67152344 14.8040625 -1.47976562 15.639375 -2.3125 16.5 C-3.11300781 17.3353125 -3.91351563 18.170625 -4.73828125 19.03125 C-7 21 -7 21 -10 21 C-12.35666976 22.99157649 -12.35666976 22.99157649 -14.6875 25.5 C-15.49574219 26.3353125 -16.30398437 27.170625 -17.13671875 28.03125 C-17.75160156 28.6809375 -18.36648437 29.330625 -19 30 C-19 26.26130751 -18.09514308 25.63449295 -15.625 22.9375 C-14.99851562 22.24527344 -14.37203125 21.55304688 -13.7265625 20.83984375 C-12.50602933 19.53923035 -11.26120903 18.26120903 -10 17 C-10 16.01 -10 15.02 -10 14 C-8.46875 12.39453125 -8.46875 12.39453125 -6.5 10.8125 C-5.52546875 10.01779297 -5.52546875 10.01779297 -4.53125 9.20703125 C-4.0259375 8.80871094 -3.520625 8.41039062 -3 8 C-3.33 8.639375 -3.66 9.27875 -4 9.9375 C-5.07271225 11.76794567 -5.07271225 11.76794567 -5 13 C-1.75700849 10.61042731 0.50902342 8.7952131 2 5 C1.34 5 0.68 5 0 5 C0 3.35 0 1.7 0 0 Z " fill="#CFCFCF" transform="translate(112,198)"/>
<path d="M0 0 C4.26504226 4.26504226 3.04576866 12.37557163 3.06591797 18.0637207 C3.06097828 21.04270744 3.03574515 24.02123739 3 27 C0.17068148 27.80928705 -2.31084077 28.11148599 -5.25 28.0625 C-7.10625 28.0315625 -7.10625 28.0315625 -9 28 C-7.62953362 21.03346256 -5.53509288 14.6242657 -3 8 C-2.41600349 6.43774774 -1.83259011 4.87527727 -1.25 3.3125 C-0.8375 2.219375 -0.425 1.12625 0 0 Z " fill="#74B1A0" transform="translate(237,273)"/>
<path d="M0 0 C2.22855574 -0.0814222 4.45797655 -0.13938079 6.6875 -0.1875 C8.54955078 -0.23970703 8.54955078 -0.23970703 10.44921875 -0.29296875 C14.18564321 0.0153171 16.00629483 0.81911727 19 3 C18.67 4.65 18.34 6.3 18 8 C15.525 7.505 15.525 7.505 13 7 C13 7.99 13 8.98 13 10 C10.58303128 10.05411124 8.16728213 10.09372278 5.75 10.125 C5.06808594 10.14175781 4.38617188 10.15851563 3.68359375 10.17578125 C-0.17130163 10.21320742 -2.65329569 9.84645755 -6 8 C-8.36222232 7.76020238 -8.36222232 7.76020238 -10.75 7.875 C-11.94882813 7.90207031 -11.94882813 7.90207031 -13.171875 7.9296875 C-14.07679688 7.96449219 -14.07679688 7.96449219 -15 8 C-12.42076634 4.84157001 -9.64468714 4.00748309 -5.8125 2.8125 C-4.72582031 2.46832031 -3.63914063 2.12414062 -2.51953125 1.76953125 C-1.68808594 1.51558594 -0.85664063 1.26164063 0 1 C0 0.67 0 0.34 0 0 Z " fill="#8EBEA7" transform="translate(248,215)"/>
<path d="M0 0 C0.33 0 0.66 0 1 0 C0.27092751 15.80936139 0.27092751 15.80936139 -1.0625 20.5 C-2.14787062 24.55205031 -2.14907136 27.82600192 -2 32 C-2.66 32 -3.32 32 -4 32 C-5.03046722 30.21385682 -6.04913236 28.42089982 -7.0625 26.625 C-7.63097656 25.62726563 -8.19945312 24.62953125 -8.78515625 23.6015625 C-9.18605469 22.74304688 -9.58695313 21.88453125 -10 21 C-9.67 20.34 -9.34 19.68 -9 19 C-8.34 19.33 -7.68 19.66 -7 20 C-7.42719767 15.44322483 -9.4429702 12.58646422 -12.0390625 8.96484375 C-13 7 -13 7 -12.6484375 4.75390625 C-12.43445313 4.17511719 -12.22046875 3.59632813 -12 3 C-11.16121545 4.28813342 -10.32913217 5.58063256 -9.5 6.875 C-8.80390625 7.95394531 -8.80390625 7.95394531 -8.09375 9.0546875 C-7 11 -7 11 -7 13 C-6.34 12.34 -5.68 11.68 -5 11 C-5.33 10.34 -5.66 9.68 -6 9 C-5.02501855 7.4972763 -4.04490611 5.99788037 -3.0625 4.5 C-2.51722656 3.6646875 -1.97195312 2.829375 -1.41015625 1.96875 C-0.94480469 1.3190625 -0.47945312 0.669375 0 0 Z " fill="#D5D5D5" transform="translate(211,172)"/>
<path d="M0 0 C3.97849289 1.3261643 6.18689707 2.91466131 9 6 C9.7425 6.7425 10.485 7.485 11.25 8.25 C12.11625 9.11625 12.11625 9.11625 13 10 C9.25297715 11.03366148 6.77200794 11.25733598 3 10 C2.01 10.99 1.02 11.98 0 13 C-0.53367187 12.62488281 -1.06734375 12.24976563 -1.6171875 11.86328125 C-7.19028366 8.0353934 -12.88822365 4.88363561 -19 2 C-18.34 1.67 -17.68 1.34 -17 1 C-16.195625 1.350625 -15.39125 1.70125 -14.5625 2.0625 C-13.2940625 2.5265625 -13.2940625 2.5265625 -12 3 C-11.01 2.34 -10.02 1.68 -9 1 C-7.32457024 1.28604898 -5.65614657 1.61781233 -4 2 C-3.34 1.67 -2.68 1.34 -2 1 C-1.34 1 -0.68 1 0 1 C0 0.67 0 0.34 0 0 Z " fill="#C4D5D5" transform="translate(103,281)"/>
<path d="M0 0 C2.375 1.0625 2.375 1.0625 4 3 C4.57491549 6.95254396 4.61372366 9.07941451 2.375 12.4375 C-0.71685231 14.47161336 -2.36367425 14.60605429 -6 14 C-8.375 12.375 -8.375 12.375 -10 10 C-10.61195145 6.3282913 -10.48706506 4.71186432 -8.375 1.625 C-5.30522452 -0.4753727 -3.65443439 -0.53293835 0 0 Z " fill="#081213" transform="translate(313,288)"/>
<path d="M0 0 C3.90474827 1.95237413 4.60828962 7.4183561 5.9453125 11.3984375 C7.20017077 15.68354612 7.66389127 18.60172035 7 23 C5.8125 25 5.8125 25 4 26 C2.33380979 26.03984909 0.66609551 26.04362934 -1 26 C-1.11624638 17.26860536 -0.89115181 8.68873018 0 0 Z " fill="#87D9D6" transform="translate(210,272)"/>
<path d="M0 0 C4.33674259 1.44558086 5.38307515 4.73832019 7.4375 8.5625 C7.81970703 9.25408203 8.20191406 9.94566406 8.59570312 10.65820312 C9.75050787 12.76194759 10.8757142 14.87982057 12 17 C12.38526855 17.69335449 12.77053711 18.38670898 13.16748047 19.10107422 C15.38089322 23.22094438 16.48935359 26.21292819 16.25 31 C16.21390625 31.94875 16.1778125 32.8975 16.140625 33.875 C16.07101562 34.926875 16.07101562 34.926875 16 36 C12.71822987 32.71822987 12.24594089 28.41742679 11 24 C7.37 24 3.74 24 0 24 C0 23.67 0 23.34 0 23 C2.97 23 5.94 23 9 23 C8.89592083 19.59919423 8.89592083 19.59919423 8 16 C7.195625 15.566875 6.39125 15.13375 5.5625 14.6875 C3 13 3 13 1.85546875 9.86328125 C1.52482422 8.10564453 1.52482422 8.10564453 1.1875 6.3125 C0.95417969 5.13300781 0.72085937 3.95351562 0.48046875 2.73828125 C0.32191406 1.83464844 0.16335938 0.93101562 0 0 Z " fill="#468F8B" transform="translate(271,228)"/>
<path d="M0 0 C0.51208008 0.15847412 1.02416016 0.31694824 1.55175781 0.48022461 C4.77353987 1.1642268 7.8794827 1.22195237 11.171875 1.31640625 C11.8542926 1.33718735 12.53671021 1.35796844 13.23980713 1.37937927 C15.40977356 1.44452052 17.57985624 1.50359404 19.75 1.5625 C21.22527221 1.60571897 22.70053287 1.64933432 24.17578125 1.69335938 C27.78373166 1.80016518 31.39181133 1.90153153 35 2 C35 2.33 35 2.66 35 3 C32.69 3.66 30.38 4.32 28 5 C28 5.66 28 6.32 28 7 C32.455 6.505 32.455 6.505 37 6 C36.67 6.66 36.34 7.32 36 8 C31.59626969 9.12998945 28.05974391 8.90017385 23.625 8.0625 C22.56539062 7.86785156 21.50578125 7.67320312 20.4140625 7.47265625 C19.61742187 7.31667969 18.82078125 7.16070312 18 7 C18 6.34 18 5.68 18 5 C17.41992188 5.15597656 16.83984375 5.31195313 16.2421875 5.47265625 C11.50734293 6.65246075 7.81154042 7.37472583 3 6 C2.01 5.34 1.02 4.68 0 4 C2 3 2 3 3 3 C2.01 2.01 1.02 1.02 0 0 Z " fill="#5E9C82" transform="translate(228,225)"/>
<path d="M0 0 C0.33 0 0.66 0 1 0 C0.97905273 0.80630859 0.95810547 1.61261719 0.93652344 2.44335938 C0.85290827 6.12877727 0.80119451 9.81399494 0.75 13.5 C0.69972656 15.40265625 0.69972656 15.40265625 0.6484375 17.34375 C0.55427021 26.38380957 1.43498937 31.77827689 7.375 38.8125 C10.10839363 41.09032802 12.75355467 42.56552415 16 44 C16 44.66 16 45.32 16 46 C18.97 46.99 21.94 47.98 25 49 C22 51 22 51 18.3125 50.5625 C10.90688393 48.42521742 5.81282058 42.62513918 2.09765625 36.1015625 C1.73542969 35.40804687 1.37320313 34.71453125 1 34 C0.41025391 32.89785156 0.41025391 32.89785156 -0.19140625 31.7734375 C-3.7691354 24.51825155 -3.6815148 18.83813435 -1.51171875 11.09765625 C-0.62222215 7.4513992 -0.32830724 3.73233493 0 0 Z " fill="#404644" transform="translate(211,179)"/>
<path d="M0 0 C1 3 1 3 -0.0390625 5.3046875 C-2.97579919 10.06422627 -5.68052893 14.40044078 -10 18 C-10.66 18 -11.32 18 -12 18 C-10.5 15 -10.5 15 -9 12 C-9.928125 12.99 -9.928125 12.99 -10.875 14 C-13 16 -13 16 -15 16 C-15 16.66 -15 17.32 -15 18 C-15.66 18 -16.32 18 -17 18 C-17 17.34 -17 16.68 -17 16 C-17.99 15.67 -18.98 15.34 -20 15 C-19.01 14.67 -18.02 14.34 -17 14 C-16.731875 13.4225 -16.46375 12.845 -16.1875 12.25 C-14.44866056 8.95535686 -11.92354664 7.28799302 -9 5 C-9.33 6.32 -9.66 7.64 -10 9 C-8.02 6.69 -6.04 4.38 -4 2 C-3.34 2.33 -2.68 2.66 -2 3 C-1.34 2.01 -0.68 1.02 0 0 Z " fill="#8FDDE0" transform="translate(211,304)"/>
<path d="M0 0 C0.66 0.33 1.32 0.66 2 1 C2 1.33 2 1.66 2 2 C2.33 2.99 2.66 3.98 3 5 C0.8406504 9.39867511 -1.31571807 12.71046256 -5 16 C-5.66 15.67 -6.32 15.34 -7 15 C-7.33 15.99 -7.66 16.98 -8 18 C-8.99 18 -9.98 18 -11 18 C-10.01 18.99 -9.02 19.98 -8 21 C-10.31 21 -12.62 21 -15 21 C-14.125 16.25 -14.125 16.25 -13 14 C-12.01 13.34 -11.02 12.68 -10 12 C-8.98131338 11.01904252 -7.97648017 10.02297922 -7 9 C-6.34 9.66 -5.68 10.32 -5 11 C-4.72285156 10.28972656 -4.44570312 9.57945312 -4.16015625 8.84765625 C-3.79792969 7.92855469 -3.43570313 7.00945312 -3.0625 6.0625 C-2.52302734 4.68771484 -2.52302734 4.68771484 -1.97265625 3.28515625 C-1 1 -1 1 0 0 Z " fill="#6DC7CA" transform="translate(185,306)"/>
<path d="M0 0 C1.32 1.32 2.64 2.64 4 4 C3.34 4.33 2.68 4.66 2 5 C2.66 5.99 3.32 6.98 4 8 C-8.87 8 -21.74 8 -35 8 C-35 7.67 -35 7.34 -35 7 C-24.605 6.505 -24.605 6.505 -14 6 C-16.475 5.505 -16.475 5.505 -19 5 C-19 4.01 -19 3.02 -19 2 C-16.72923158 1.97300275 -14.45837179 1.95360547 -12.1875 1.9375 C-10.29064453 1.92009766 -10.29064453 1.92009766 -8.35546875 1.90234375 C-5 2 -5 2 -2 3 C-1.34 2.01 -0.68 1.02 0 0 Z " fill="#84C2A5" transform="translate(267,219)"/>
<path d="M0 0 C0.33 0 0.66 0 1 0 C1.19585135 2.39541268 1.38192107 4.79092774 1.5625 7.1875 C1.61857422 7.86103516 1.67464844 8.53457031 1.73242188 9.22851562 C2.00963763 13.017131 1.96511161 16.31827794 1 20 C1.66 20 2.32 20 3 20 C2.814375 20.763125 2.62875 21.52625 2.4375 22.3125 C1.77180827 25.08967375 1.77180827 25.08967375 3 28 C1.90716423 29.03295436 0.80029421 30.05107835 -0.3125 31.0625 C-0.92738281 31.63097656 -1.54226562 32.19945312 -2.17578125 32.78515625 C-2.77777344 33.18605469 -3.37976563 33.58695313 -4 34 C-4.99 33.67 -5.98 33.34 -7 33 C-6.566875 32.50628906 -6.13375 32.01257813 -5.6875 31.50390625 C-5.130625 30.86324219 -4.57375 30.22257812 -4 29.5625 C-3.443125 28.92441406 -2.88625 28.28632813 -2.3125 27.62890625 C-0.89542935 26.21886821 -0.89542935 26.21886821 -1 25 C-1.66 25.33 -2.32 25.66 -3 26 C-3 25.34 -3 24.68 -3 24 C-3.66 24 -4.32 24 -5 24 C-4.01 19.05 -3.02 14.1 -2 9 C-1.34 9 -0.68 9 0 9 C0 6.03 0 3.06 0 0 Z " fill="#D9D9D9" transform="translate(107,178)"/>
<path d="M0 0 C-1.00313062 2.23775292 -1.84476835 3.8507388 -3.625 5.5625 C-5.34561132 7.02978279 -5.34561132 7.02978279 -5 10 C-5.99 10.66 -6.98 11.32 -8 12 C-8 12.99 -8 13.98 -8 15 C-11.63 16.98 -15.26 18.96 -19 21 C-18 18 -18 18 -14.9375 16.3125 C-13.968125 15.879375 -12.99875 15.44625 -12 15 C-12.66 14.34 -13.32 13.68 -14 13 C-15.98 13.66 -17.96 14.32 -20 15 C-20.33 13.02 -20.66 11.04 -21 9 C-20.67 9.99 -20.34 10.98 -20 12 C-15.06525449 9.4835475 -4.77428746 0 0 0 Z " fill="#57C6B6" transform="translate(269,250)"/>
<path d="M0 0 C0 3 0 3 -1.15234375 4.40234375 C-8.65506184 10.85435296 -16.86727918 16.38105443 -25 22 C-25.66 20.68 -26.32 19.36 -27 18 C-26.02160156 17.3709375 -25.04320313 16.741875 -24.03515625 16.09375 C-17.13820546 11.60668324 -10.63688951 7.1865622 -4.734375 1.3984375 C-3 0 -3 0 0 0 Z " fill="#C4C4C4" transform="translate(103,204)"/>
<path d="M0 0 C0 1.66666667 0 3.33333333 0 5 C1.9600281 6.63676257 1.9600281 6.63676257 4 8 C3.67 8.99 3.34 9.98 3 11 C2.01 10.34 1.02 9.68 0 9 C-0.33 10.32 -0.66 11.64 -1 13 C-2.65 12.67 -4.3 12.34 -6 12 C-7.32 13.65 -8.64 15.3 -10 17 C-10 16.34 -10 15.68 -10 15 C-10.99 15.33 -11.98 15.66 -13 16 C-13.33 14.68 -13.66 13.36 -14 12 C-13.01 12 -12.02 12 -11 12 C-10.84850702 8.37114676 -10.84850702 8.37114676 -12 5 C-11.401875 5.33 -10.80375 5.66 -10.1875 6 C-7.94613529 7.20787988 -7.94613529 7.20787988 -5 7 C-4.9175 6.401875 -4.835 5.80375 -4.75 5.1875 C-3.79544128 2.4033704 -2.42867729 1.56688858 0 0 Z " fill="#63B0B3" transform="translate(177,307)"/>
<path d="M0 0 C1.32 1.32 2.64 2.64 4 4 C4.66 3.67 5.32 3.34 6 3 C6.66 3.33 7.32 3.66 8 4 C9.38615277 8.23546679 10 11.59651683 10 16 C9.01 16.33 8.02 16.66 7 17 C5.35 14.03 3.7 11.06 2 8 C1.01 8 0.02 8 -1 8 C-3.1875 5.5 -3.1875 5.5 -5 3 C-3.68 3.33 -2.36 3.66 -1 4 C-1.33 3.34 -1.66 2.68 -2 2 C-1.34 2 -0.68 2 0 2 C0 1.34 0 0.68 0 0 Z " fill="#CFCFCF" transform="translate(197,168)"/>
<path d="M0 0 C1.96301592 3.50538557 2.95902388 7.13351728 4 11 C3.01 11 2.02 11 1 11 C1 13.31 1 15.62 1 18 C-0.32 17.01 -1.64 16.02 -3 15 C-3.66 15.66 -4.32 16.32 -5 17 C-5.28875 16.38125 -5.5775 15.7625 -5.875 15.125 C-6.93720042 12.86674235 -6.93720042 12.86674235 -9 11 C-9.125 7.375 -9.125 7.375 -9 4 C-8.67 5.32 -8.34 6.64 -8 8 C-5.01779872 7.45160938 -5.01779872 7.45160938 -2 6 C-0.54839062 2.98220128 -0.54839062 2.98220128 0 0 Z " fill="#72A7A9" transform="translate(217,290)"/>
<path d="M0 0 C0.33 0 0.66 0 1 0 C0.27092751 15.80936139 0.27092751 15.80936139 -1.0625 20.5 C-2.14787062 24.55205031 -2.14907136 27.82600192 -2 32 C-2.66 32 -3.32 32 -4 32 C-7 26.25 -7 26.25 -7 24 C-6.34 24 -5.68 24 -5 24 C-5.33 23.01 -5.66 22.02 -6 21 C-5.5625 18.3125 -5.5625 18.3125 -5 16 C-4.34 16 -3.68 16 -3 16 C-3 15.34 -3 14.68 -3 14 C-2.34 14 -1.68 14 -1 14 C-1.09539062 13.24074219 -1.19078125 12.48148438 -1.2890625 11.69921875 C-1.39992187 10.70535156 -1.51078125 9.71148437 -1.625 8.6875 C-1.74101562 7.70136719 -1.85703125 6.71523437 -1.9765625 5.69921875 C-2 3 -2 3 0 0 Z " fill="#909091" transform="translate(211,172)"/>
<path d="M0 0 C2.03529587 2.03529587 2.6384272 3.23417382 3.625 5.875 C3.88539063 6.55304688 4.14578125 7.23109375 4.4140625 7.9296875 C5 10 5 10 5 14 C1.7 14 -1.6 14 -5 14 C-2.05357143 3.82142857 -2.05357143 3.82142857 0 0 Z " fill="#55CDCA" transform="translate(276,267)"/>
<path d="M0 0 C1.875 0.1875 1.875 0.1875 4 1 C5.25 3.5625 5.25 3.5625 6 6 C5.34 6 4.68 6 4 6 C4.16757812 6.60328125 4.33515625 7.2065625 4.5078125 7.828125 C4.71148437 8.62734375 4.91515625 9.4265625 5.125 10.25 C5.33382813 11.03890625 5.54265625 11.8278125 5.7578125 12.640625 C6.04314411 15.4203071 5.44977894 16.65887549 4 19 C4 18.01 4 17.02 4 16 C-0.455 15.01 -0.455 15.01 -5 14 C-3 12 -3 12 -1 11 C-1.66 10.67 -2.32 10.34 -3 10 C-1.68 8.68 -0.36 7.36 1 6 C0.34 5.67 -0.32 5.34 -1 5 C-0.34 4.34 0.32 3.68 1 3 C0.67 2.01 0.34 1.02 0 0 Z " fill="#6BAF91" transform="translate(268,223)"/>
<path d="M0 0 C0.67095703 0.58007812 0.67095703 0.58007812 1.35546875 1.171875 C4.8521026 4.18390075 8.37407463 7.14321031 12 10 C12.33 9.34 12.66 8.68 13 8 C13.94875 8.515625 14.8975 9.03125 15.875 9.5625 C17.421875 10.2740625 17.421875 10.2740625 19 11 C19.66 10.67 20.32 10.34 21 10 C22.32 10.99 23.64 11.98 25 13 C24.67 13.33 24.34 13.66 24 14 C24.66 14.66 25.32 15.32 26 16 C23.26790391 15.53164067 20.93211341 14.97090575 18.375 13.875 C15.90564502 12.68439886 15.90564502 12.68439886 13 14 C9.00095031 14 7.19799578 12.27413033 4 10 C4.99 9.67 5.98 9.34 7 9 C6.4946875 8.51789063 5.989375 8.03578125 5.46875 7.5390625 C4.49421875 6.59160156 4.49421875 6.59160156 3.5 5.625 C2.8503125 4.99851562 2.200625 4.37203125 1.53125 3.7265625 C0 2 0 2 0 0 Z " fill="#8ABFC1" transform="translate(125,277)"/>
<path d="M0 0 C0.33 0.66 0.66 1.32 1 2 C-1.475 3.485 -1.475 3.485 -4 5 C-3.67 6.65 -3.34 8.3 -3 10 C-2.34 10 -1.68 10 -1 10 C-1.3125 11.9375 -1.3125 11.9375 -2 14 C-2.99 14.33 -3.98 14.66 -5 15 C-4.67 13.68 -4.34 12.36 -4 11 C-4.99 11.33 -5.98 11.66 -7 12 C-7 10.68 -7 9.36 -7 8 C-7.99 8.495 -7.99 8.495 -9 9 C-9 8.01 -9 7.02 -9 6 C-9.99 7.32 -10.98 8.64 -12 10 C-12.66 9.67 -13.32 9.34 -14 9 C-13 6 -13 6 -10.9375 4.8125 C-10.298125 4.544375 -9.65875 4.27625 -9 4 C-9 3.34 -9 2.68 -9 2 C-3.375 -1.125 -3.375 -1.125 0 0 Z " fill="#59AEB1" transform="translate(194,301)"/>
<path d="M0 0 C2.91517292 1.07401108 4.77810176 1.77810176 7 4 C7.125 7.625 7.125 7.625 7 11 C4.69 11 2.38 11 0 11 C0 9.02 0 7.04 0 5 C-0.66 6.32 -1.32 7.64 -2 9 C-2.93423645 5.98968256 -3.04449911 5.13349732 -2 2 C-1.34 2 -0.68 2 0 2 C0 1.34 0 0.68 0 0 Z " fill="#5AAC99" transform="translate(273,240)"/>
<path d="M0 0 C0.41947561 4.6404489 -0.9912525 7.66945827 -3 11.8125 C-3.556875 12.97394531 -4.11375 14.13539063 -4.6875 15.33203125 C-5.120625 16.21246094 -5.55375 17.09289062 -6 18 C-6.33 18 -6.66 18 -7 18 C-7.13501894 15.56065775 -7.23403897 13.12875896 -7.3125 10.6875 C-7.35439453 9.99720703 -7.39628906 9.30691406 -7.43945312 8.59570312 C-7.48828125 6.57421875 -7.48828125 6.57421875 -7 3 C-4.5884676 1.00546994 -3.1524256 0 0 0 Z " fill="#67C9AB" transform="translate(258,281)"/>
<path d="M0 0 C0.33 0.99 0.66 1.98 1 3 C1.66 3 2.32 3 3 3 C2.72201968 7.58667523 0.66081494 10.24498018 -2.30078125 13.55078125 C-4.71553602 15.61026175 -6.88105014 15.92573929 -10 16 C-8.26169318 12.25595455 -5.96792576 9.23894498 -3.4375 6 C-2.0482778 4.06716912 -1.00060834 2.15515643 0 0 Z " fill="#8FCDCF" transform="translate(211,307)"/>
<path d="M0 0 C1.093125 0.37125 2.18625 0.7425 3.3125 1.125 C4.529375 1.41375 5.74625 1.7025 7 2 C7.99 1.34 8.98 0.68 10 0 C12 0 12 0 13.4375 1.3125 C14.2109375 2.1478125 14.2109375 2.1478125 15 3 C15.495 3.45375 15.99 3.9075 16.5 4.375 C18.36797435 6.39863887 19.64420598 8.61122006 21 11 C17.39589814 11 15.87008943 10.01049739 12.75 8.25 C11.29400391 7.43402344 11.29400391 7.43402344 9.80859375 6.6015625 C8.88175781 6.07304687 7.95492187 5.54453125 7 5 C6.24847656 4.57460938 5.49695313 4.14921875 4.72265625 3.7109375 C3.14468969 2.81385222 1.57166806 1.90807488 0 1 C0 0.67 0 0.34 0 0 Z " fill="#CCD2D2" transform="translate(84,282)"/>
<path d="M0 0 C3.45989302 2.6735537 3.9210752 5.90008577 5 10 C5.391875 10.70125 5.78375 11.4025 6.1875 12.125 C7.32145645 14.74182258 6.84441932 16.32600549 6 19 C5.34 19.66 4.68 20.32 4 21 C3.49487756 19.39743892 2.99608373 17.79288208 2.5 16.1875 C2.08234375 14.84751953 2.08234375 14.84751953 1.65625 13.48046875 C1 11 1 11 1 8 C0.484375 7.154375 -0.03125 6.30875 -0.5625 5.4375 C-1.2740625 4.2309375 -1.2740625 4.2309375 -2 3 C-1 1 -1 1 0 0 Z " fill="#BABABA" transform="translate(204,153)"/>
<path d="M0 0 C2 2 2 2 2.1953125 4.8203125 C2.16050781 6.45613281 2.16050781 6.45613281 2.125 8.125 C2.10695312 9.22070312 2.08890625 10.31640625 2.0703125 11.4453125 C2.04710937 12.28835938 2.02390625 13.13140625 2 14 C-1.465 15.485 -1.465 15.485 -5 17 C-4.54619105 15.10307857 -4.08675008 13.20750405 -3.625 11.3125 C-3.36976563 10.25675781 -3.11453125 9.20101563 -2.8515625 8.11328125 C-2.08094511 5.29593234 -1.14501457 2.68331675 0 0 Z " fill="#73C6AD" transform="translate(237,273)"/>
<path d="M0 0 C4.51107404 1.50369135 5.53170163 4.85127267 7.75 8.875 C8.17410156 9.60847656 8.59820312 10.34195313 9.03515625 11.09765625 C9.62876953 12.15919922 9.62876953 12.15919922 10.234375 13.2421875 C10.59756836 13.8904248 10.96076172 14.53866211 11.33496094 15.20654297 C12 17 12 17 11 20 C9.79557292 18.47005208 8.59114583 16.94010417 7.38671875 15.41015625 C5.94316909 13.72844923 5.94316909 13.72844923 3 13 C2.05078125 10.05859375 2.05078125 10.05859375 1.3125 6.4375 C1.06113281 5.23996094 0.80976563 4.04242188 0.55078125 2.80859375 C0.27814453 1.41833984 0.27814453 1.41833984 0 0 Z " fill="#41685A" transform="translate(271,228)"/>
<path d="M0 0 C0 0.66 0 1.32 0 2 C0.87011719 1.94779297 0.87011719 1.94779297 1.7578125 1.89453125 C7.009134 1.71255476 10.39511219 2.16622289 15 5 C15 5.33 15 5.66 15 6 C6.84515697 5.55348122 -1.04264468 4.88849677 -9 3 C-9 2.34 -9 1.68 -9 1 C-5.846632 0.29925156 -3.27275026 0 0 0 Z " fill="#6AB99A" transform="translate(246,230)"/>
<path d="M0 0 C0.66 0.33 1.32 0.66 2 1 C2 1.99 2 2.98 2 4 C0.02 4.99 -1.96 5.98 -4 7 C-3.01 6.67 -2.02 6.34 -1 6 C0.33106622 5.65772583 1.66400079 5.32248257 3 5 C1.73046875 6.49739583 0.4609375 7.99479167 -0.80859375 9.4921875 C-2.0878152 11.00594079 -2.0878152 11.00594079 -3 13 C-3.66 13 -4.32 13 -5 13 C-5.33 13.99 -5.66 14.98 -6 16 C-6 11.71 -6 7.42 -6 3 C-4.03533587 1.93224776 -2.03144641 0.93446535 0 0 Z " fill="#4DB0A3" transform="translate(255,262)"/>
<path d="M0 0 C1.16015625 0.02320313 1.16015625 0.02320313 2.34375 0.046875 C4.5 0.25 4.5 0.25 7.5 1.25 C9.72574335 1.47451458 11.95581519 1.65782878 14.1875 1.8125 C15.36699219 1.89628906 16.54648437 1.98007813 17.76171875 2.06640625 C19.11716797 2.15728516 19.11716797 2.15728516 20.5 2.25 C20.5 3.24 20.5 4.23 20.5 5.25 C18.08303128 5.30411124 15.66728213 5.34372278 13.25 5.375 C12.56808594 5.39175781 11.88617188 5.40851563 11.18359375 5.42578125 C7.32869837 5.46320742 4.84670431 5.09645755 1.5 3.25 C-0.86222232 3.01020238 -0.86222232 3.01020238 -3.25 3.125 C-4.44882813 3.15207031 -4.44882813 3.15207031 -5.671875 3.1796875 C-6.57679688 3.21449219 -6.57679688 3.21449219 -7.5 3.25 C-5.12470959 0.35701809 -3.71033522 -0.12367784 0 0 Z " fill="#8FD8B5" transform="translate(240.5,219.75)"/>
<path d="M0 0 C0.99 0.99 1.98 1.98 3 3 C2.01 4.98 1.02 6.96 0 9 C-0.99 9 -1.98 9 -3 9 C-2.01 9.99 -1.02 10.98 0 12 C-2.31 12 -4.62 12 -7 12 C-6.125 7.25 -6.125 7.25 -5 5 C-4.01 4.34 -3.02 3.68 -2 3 C-1.34 2.01 -0.68 1.02 0 0 Z " fill="#76CED2" transform="translate(177,315)"/>
<path d="M0 0 C-0.66 1.32 -1.32 2.64 -2 4 C-2.99 3.67 -3.98 3.34 -5 3 C-8.61407378 2.72926677 -12.22779264 2.55448271 -15.84765625 2.37890625 C-19 2 -19 2 -21 0 C-14.33322678 -1.9718625 -6.72925934 -1.45497499 0 0 Z " fill="#A3E0C3" transform="translate(267,219)"/>
<path d="M0 0 C0.66 0 1.32 0 2 0 C2.144375 1.2375 2.28875 2.475 2.4375 3.75 C2.70378334 6.01936998 2.96767581 7.91110849 3.75 10.0625 C4.18114023 13.40383681 2.43281419 16.01974648 1 19 C0.34 19 -0.32 19 -1 19 C-0.67 17.35 -0.34 15.7 0 14 C-0.66 14 -1.32 14 -2 14 C-1.34 9.38 -0.68 4.76 0 0 Z " fill="#F2F2F2" transform="translate(123,190)"/>
<path d="M0 0 C0.66 0 1.32 0 2 0 C2 0.99 2 1.98 2 3 C2.66 3 3.32 3 4 3 C3.67 3.99 3.34 4.98 3 6 C2.34 6 1.68 6 1 6 C1 6.66 1 7.32 1 8 C1.66 8 2.32 8 3 8 C3 8.66 3 9.32 3 10 C-1.875 9.125 -1.875 9.125 -3 8 C-4.98 8.99 -4.98 8.99 -7 10 C-5.32598022 6.04322598 -2.86850715 3.15535787 0 0 Z " fill="#7CD6D9" transform="translate(188,312)"/>
<path d="M0 0 C0 3.90838866 -1.50567876 5.11594107 -4 8 C-2.906875 7.95875 -1.81375 7.9175 -0.6875 7.875 C3 8 3 8 6 10 C1.75448144 11.09587955 -1.9592839 10.92865836 -6.3125 10.5625 C-8.19388672 10.40974609 -8.19388672 10.40974609 -10.11328125 10.25390625 C-11.06589844 10.17011719 -12.01851562 10.08632813 -13 10 C-9.25 8 -9.25 8 -7 8 C-7 7.34 -7 6.68 -7 6 C-5.46875 4.4921875 -5.46875 4.4921875 -3.5 2.875 C-2.8503125 2.33617187 -2.200625 1.79734375 -1.53125 1.2421875 C-0.77328125 0.62730469 -0.77328125 0.62730469 0 0 Z " fill="#639294" transform="translate(203,314)"/>
<path d="M0 0 C0.33 0.66 0.66 1.32 1 2 C-0.87260371 6.05730805 -2.87984483 8.23421921 -7 10 C-9.8125 9.6875 -9.8125 9.6875 -12 9 C-8.32442148 4.99027798 -4.81033104 2.54664585 0 0 Z " fill="#57D0C7" transform="translate(265,263)"/>
<path d="M0 0 C1 3 1 3 -0.0390625 5.3046875 C-2.97579919 10.06422627 -5.68052893 14.40044078 -10 18 C-10.66 18 -11.32 18 -12 18 C-10.40330002 14.48227036 -8.29445992 11.53755154 -6 8.4375 C-3.94366773 5.65162338 -1.9209375 2.88140624 0 0 Z " fill="#9CE8EB" transform="translate(211,304)"/>
<path d="M0 0 C0.556875 0.391875 1.11375 0.78375 1.6875 1.1875 C-1.63557692 6.97211538 -1.63557692 6.97211538 -5.0625 8.0625 C-5.805 8.10375 -6.5475 8.145 -7.3125 8.1875 C-7.625 5.375 -7.625 5.375 -7.3125 2.1875 C-4.66111111 -0.16929013 -3.4537359 -1.21347478 0 0 Z " fill="#5ABCA4" transform="translate(257.3125,275.8125)"/>
<path d="M0 0 C0.79921875 0.00902344 1.5984375 0.01804687 2.421875 0.02734375 C3.02515625 0.03894531 3.6284375 0.05054688 4.25 0.0625 C4.25 0.7225 4.25 1.3825 4.25 2.0625 C2.6721875 1.93875 2.6721875 1.93875 1.0625 1.8125 C-3.37229238 2.10330606 -4.51785291 3.17977421 -7.75 6.0625 C-10.0625 6.8125 -10.0625 6.8125 -11.75 7.0625 C-11.75 6.4025 -11.75 5.7425 -11.75 5.0625 C-12.41 4.7325 -13.07 4.4025 -13.75 4.0625 C-9.00436356 1.03056561 -5.61032346 -0.08250476 0 0 Z " fill="#4BA7AA" transform="translate(192.75,296.9375)"/>
<path d="M0 0 C5.71658336 -0.45732667 8.48649253 0.47726246 13 4 C12.34 4.66 11.68 5.32 11 6 C8 6 8 6 5 5 C4.01 5 3.02 5 2 5 C0.3125 3.5 0.3125 3.5 -1 2 C-0.67 1.34 -0.34 0.68 0 0 Z " fill="#B2C0C1" transform="translate(101,286)"/>
<path d="M0 0 C-0.81984375 0.26554688 -1.6396875 0.53109375 -2.484375 0.8046875 C-4.10085937 1.33449219 -4.10085937 1.33449219 -5.75 1.875 C-6.81734375 2.22304687 -7.8846875 2.57109375 -8.984375 2.9296875 C-11.91335126 3.88602606 -11.91335126 3.88602606 -14.16015625 5.1484375 C-17.21198735 6.5609623 -19.82201633 5.71954347 -23 5 C-23.33 4.34 -23.66 3.68 -24 3 C-23.14277344 2.87882813 -22.28554687 2.75765625 -21.40234375 2.6328125 C-14.08284038 1.62457531 -14.08284038 1.62457531 -6.9375 -0.1875 C-3.9136091 -1.02389536 -2.88740311 -0.87553514 0 0 Z " fill="#6D9F88" transform="translate(249,217)"/>
<path d="M0 0 C2.00045613 0.26956501 3.98036247 0.68194312 5.953125 1.109375 C5.953125 1.769375 5.953125 2.429375 5.953125 3.109375 C6.613125 3.439375 7.273125 3.769375 7.953125 4.109375 C6.66295086 5.09050743 5.37093394 6.06921699 4.078125 7.046875 C3.35882813 7.59214844 2.63953125 8.13742187 1.8984375 8.69921875 C-0.046875 10.109375 -0.046875 10.109375 -2.046875 11.109375 C-1.734375 9.234375 -1.734375 9.234375 -1.046875 7.109375 C-0.056875 6.449375 0.933125 5.789375 1.953125 5.109375 C1.293125 4.449375 0.633125 3.789375 -0.046875 3.109375 C-2.026875 3.769375 -4.006875 4.429375 -6.046875 5.109375 C-3.15469741 0.16857162 -3.15469741 0.16857162 0 0 Z " fill="#70DDE1" transform="translate(191.046875,297.890625)"/>
<path d="M0 0 C3.34708051 1.54841575 6.24667512 3.49105864 9.25 5.625 C10.14203125 6.25664062 11.0340625 6.88828125 11.953125 7.5390625 C12.96632812 8.26222656 12.96632812 8.26222656 14 9 C13.01 9 12.02 9 11 9 C10.21625 9.103125 9.4325 9.20625 8.625 9.3125 C4.7958574 8.85664969 3.40381526 6.88457831 1 4 C1 3.34 1 2.68 1 2 C0.67 1.34 0.34 0.68 0 0 Z " fill="#9DC4C5" transform="translate(116,283)"/>
<path d="M0 0 C0.33 0.66 0.66 1.32 1 2 C2.98 1.67 4.96 1.34 7 1 C2.93265026 5.59216906 -1.56385928 8.2167907 -7 11 C-7.66 10.34 -8.32 9.68 -9 9 C-8.13375 8.87625 -8.13375 8.87625 -7.25 8.75 C-4.3840696 7.79468987 -3.0009236 6.21530827 -1 4 C-1.99 3.34 -2.98 2.68 -4 2 C-2.68 2 -1.36 2 0 2 C0 1.34 0 0.68 0 0 Z " fill="#6E9799" transform="translate(158,332)"/>
<path d="M0 0 C0 1.66666667 0 3.33333333 0 5 C1.9600281 6.63676257 1.9600281 6.63676257 4 8 C3.67 8.99 3.34 9.98 3 11 C2.01 10.34 1.02 9.68 0 9 C-1.98 9.99 -1.98 9.99 -4 11 C-4.66 10.01 -5.32 9.02 -6 8 C-5.00200236 4.00800942 -3.44200138 2.17993421 0 0 Z " fill="#60BCBF" transform="translate(177,307)"/>
<path d="M0 0 C0.66 0.33 1.32 0.66 2 1 C1.82374165 3.37948772 1.30280227 4.70225849 -0.40234375 6.37890625 C-1.90649092 7.62115486 -3.45129851 8.81376056 -5 10 C-5.66 9.67 -6.32 9.34 -7 9 C-6.82374165 6.62051228 -6.30280227 5.29774151 -4.59765625 3.62109375 C-3.09350908 2.37884514 -1.54870149 1.18623944 0 0 Z " fill="#6DC6CA" transform="translate(197,302)"/>
<path d="M0 0 C0.33 1.32 0.66 2.64 1 4 C-0.32 4.99 -1.64 5.98 -3 7 C-2.67 7.99 -2.34 8.98 -2 10 C-3.66611905 10.042721 -5.33382885 10.04063832 -7 10 C-8 9 -8 9 -8.125 6.5 C-8 4 -8 4 -7 3 C-5.33382885 2.95936168 -3.66611905 2.957279 -2 3 C-2 2.34 -2 1.68 -2 1 C-1.34 0.67 -0.68 0.34 0 0 Z " fill="#85CFBB" transform="translate(238,288)"/>
<path d="M0 0 C2.475 0.99 2.475 0.99 5 2 C5 2.66 5 3.32 5 4 C7.97 4.99 10.94 5.98 14 7 C11 9 11 9 7.0625 8.375 C3.44783624 7.36316042 1.38312495 5.97890619 -1 3 C-0.67 2.01 -0.34 1.02 0 0 Z " fill="#3E6353" transform="translate(222,221)"/>
<path d="M0 0 C0.66 0.33 1.32 0.66 2 1 C2 1.66 2 2.32 2 3 C2.33 3.66 2.66 4.32 3 5 C-0.153368 5.70074844 -2.72724974 6 -6 6 C-6 5.01 -6 4.02 -6 3 C-7.32 2.34 -8.64 1.68 -10 1 C-7.98177083 1.03255208 -5.96354167 1.06510417 -3.9453125 1.09765625 C-1.91814596 1.12649242 -1.91814596 1.12649242 0 0 Z " fill="#82BCBF" transform="translate(165,328)"/>
<path d="M0 0 C1.670625 0.7734375 1.670625 0.7734375 3.375 1.5625 C5.169375 2.2740625 5.169375 2.2740625 7 3 C7.66 2.67 8.32 2.34 9 2 C10.32 2.99 11.64 3.98 13 5 C12.67 5.33 12.34 5.66 12 6 C12.66 6.66 13.32 7.32 14 8 C11.29668527 7.53657462 8.92449142 6.969437 6.375 5.9375 C3.9604786 4.81641673 3.9604786 4.81641673 1 5 C0.67 3.35 0.34 1.7 0 0 Z " fill="#76C0C3" transform="translate(137,285)"/>
<path d="M0 0 C0 3.48961209 -0.90379374 5.11480295 -2.5 8.1875 C-2.9640625 9.08855469 -3.428125 9.98960937 -3.90625 10.91796875 C-4.2671875 11.60503906 -4.628125 12.29210937 -5 13 C-5.66 13 -6.32 13 -7 13 C-7 12.34 -7 11.68 -7 11 C-7.99 10.67 -8.98 10.34 -10 10 C-9.01 9.67 -8.02 9.34 -7 9 C-6.71125 8.4225 -6.4225 7.845 -6.125 7.25 C-4.61984999 4.23969997 -2.42622037 2.29852456 0 0 Z " fill="#84D6D9" transform="translate(201,309)"/>
<path d="M0 0 C0.33 0.66 0.66 1.32 1 2 C0.57847656 2.53109375 0.15695313 3.0621875 -0.27734375 3.609375 C-0.82519531 4.31578125 -1.37304688 5.0221875 -1.9375 5.75 C-2.48277344 6.44609375 -3.02804688 7.1421875 -3.58984375 7.859375 C-5.10557017 9.8981489 -5.10557017 9.8981489 -5.53125 12.1875 C-5.6859375 12.785625 -5.840625 13.38375 -6 14 C-8.5625 15.25 -8.5625 15.25 -11 16 C-11.33 15.01 -11.66 14.02 -12 13 C-11.20335938 12.34644531 -11.20335938 12.34644531 -10.390625 11.6796875 C-6.12916103 8.08699343 -2.81865152 4.81519634 0 0 Z " fill="#F1F1F2" transform="translate(107,200)"/>
<path d="M0 0 C2.4294516 3.6441774 2.16179575 5.71241272 2 10 C1.34 10 0.68 10 0 10 C0 10.66 0 11.32 0 12 C-0.99 12 -1.98 12 -3 12 C-2.7525 11.0409375 -2.7525 11.0409375 -2.5 10.0625 C-1.81528002 7.44317809 -1.81528002 7.44317809 -3 5 C-1.5625 2.375 -1.5625 2.375 0 0 Z " fill="#C2C2C2" transform="translate(208,176)"/>
<path d="M0 0 C1 2 1 2 0.5 4.375 C-1.67349918 8.17862356 -4.04480331 9.16365868 -8 11 C-8.66 10.67 -9.32 10.34 -10 10 C-9.01 9.34 -8.02 8.68 -7 8 C-7 7.01 -7 6.02 -7 5 C-5.46875 3.61328125 -5.46875 3.61328125 -3.5 2.3125 C-2.8503125 1.87550781 -2.200625 1.43851562 -1.53125 0.98828125 C-0.77328125 0.49908203 -0.77328125 0.49908203 0 0 Z " fill="#449F97" transform="translate(268,256)"/>
<path d="M0 0 C0.33 0 0.66 0 1 0 C1 3.3 1 6.6 1 10 C1.33 10 1.66 10 2 10 C2.05391993 11.79133978 2.09275571 13.58313899 2.125 15.375 C2.14820313 16.37273437 2.17140625 17.37046875 2.1953125 18.3984375 C2 21 2 21 0 23 C0 21.02 0 19.04 0 17 C-0.33 17 -0.66 17 -1 17 C-1.12036664 11.22240116 -0.8320582 5.72040011 0 0 Z " fill="#D3D3D3" transform="translate(126,182)"/>
<path d="M0 0 C1.20628008 2.33214148 2.1654738 4.49642139 3 7 C2.34 7 1.68 7 1 7 C1 7.99 1 8.98 1 10 C-2.3 10 -5.6 10 -9 10 C-9 8.02 -9 6.04 -9 4 C-8.67 5.32 -8.34 6.64 -8 8 C-5.01779872 7.45160938 -5.01779872 7.45160938 -2 6 C-0.54839062 2.98220128 -0.54839062 2.98220128 0 0 Z " fill="#3C5B5A" transform="translate(217,290)"/>
<path d="M0 0 C0.66 0.33 1.32 0.66 2 1 C1.34 1.433125 0.68 1.86625 0 2.3125 C-0.66 2.869375 -1.32 3.42625 -2 4 C-2 4.99 -2 5.98 -2 7 C-5.63 8.98 -9.26 10.96 -13 13 C-12 10 -12 10 -8.9375 8.3125 C-7.968125 7.879375 -6.99875 7.44625 -6 7 C-6 6.01 -6 5.02 -6 4 C-3 1.8125 -3 1.8125 0 0 Z " fill="#5BD4C8" transform="translate(263,258)"/>
<path d="M0 0 C2.95183101 2.95183101 3.08663988 5.95511947 4 10 C2.68 10.33 1.36 10.66 0 11 C0 9.02 0 7.04 0 5 C-0.66 6.32 -1.32 7.64 -2 9 C-2.93423645 5.98968256 -3.04449911 5.13349732 -2 2 C-1.34 2 -0.68 2 0 2 C0 1.34 0 0.68 0 0 Z " fill="#66C5AB" transform="translate(273,240)"/>
<path d="M0 0 C0.66 0.33 1.32 0.66 2 1 C0.38150935 2.83946539 -1.24418831 4.67151417 -2.875 6.5 C-3.33519531 7.02464844 -3.79539063 7.54929687 -4.26953125 8.08984375 C-5.47172076 9.43141755 -6.73245946 10.71999185 -8 12 C-8.66 12 -9.32 12 -10 12 C-8.62968895 6.34746692 -4.32310587 3.4886459 0 0 Z " fill="#85E4E8" transform="translate(202,303)"/>
<path d="M0 0 C1.875 0.1875 1.875 0.1875 4 1 C5.25 3.5625 5.25 3.5625 6 6 C5.01 5.67 4.02 5.34 3 5 C2.938125 5.61875 2.87625 6.2375 2.8125 6.875 C2 9 2 9 -0.5625 10.25 C-1.366875 10.4975 -2.17125 10.745 -3 11 C-1.68 9.35 -0.36 7.7 1 6 C0.34 5.67 -0.32 5.34 -1 5 C-0.34 4.34 0.32 3.68 1 3 C0.67 2.01 0.34 1.02 0 0 Z " fill="#6EA189" transform="translate(268,223)"/>
<path d="M0 0 C11.70615034 6.15034169 11.70615034 6.15034169 16 10 C13.125 10.125 13.125 10.125 10 10 C9.34 9.34 8.68 8.68 8 8 C5.94843929 6.42713679 3.87347873 4.912138 1.75 3.4375 C0.88375 2.7259375 0.88375 2.7259375 0 2 C0 1.34 0 0.68 0 0 Z " fill="#5D8875" transform="translate(217,216)"/>
<path d="M0 0 C1.65 0 3.3 0 5 0 C5.6875 3.3125 5.6875 3.3125 6 7 C5.01 7.99 4.02 8.98 3 10 C2.01 6.7 1.02 3.4 0 0 Z " fill="#ADAEAE" transform="translate(205,164)"/>
<path d="M0 0 C2 2 2 2 2.1953125 4.1640625 C2.17210937 4.97617187 2.14890625 5.78828125 2.125 6.625 C2.10695312 7.44226563 2.08890625 8.25953125 2.0703125 9.1015625 C2.03550781 10.04128906 2.03550781 10.04128906 2 11 C0.68 10.67 -0.64 10.34 -2 10 C-1.125 2.25 -1.125 2.25 0 0 Z " fill="#60B29A" transform="translate(237,273)"/>
<path d="M0 0 C2.475 0.99 2.475 0.99 5 2 C5 2.66 5 3.32 5 4 C0.25 6 0.25 6 -2 6 C-3.36161311 6.96113866 -4.69855198 7.95884159 -6 9 C-4.47291037 5.56404834 -2.40072955 2.88087546 0 0 Z " fill="#D6D6D6" transform="translate(116,204)"/>
<path d="M0 0 C2.76223278 2.76223278 2.57856291 5.20706617 3 9 C1.02 9 -0.96 9 -3 9 C-2.01 7.35 -1.02 5.7 0 4 C-0.66 3.67 -1.32 3.34 -2 3 C-1.34 2.01 -0.68 1.02 0 0 Z " fill="#47ACAB" transform="translate(278,272)"/>
<path d="M0 0 C2.39073445 3.82517513 2.55966552 7.59665524 3 12 C2.34 12 1.68 12 1 12 C-2 6.25 -2 6.25 -2 4 C-1.34 4 -0.68 4 0 4 C-0.33 3.01 -0.66 2.02 -1 1 C-0.67 0.67 -0.34 0.34 0 0 Z " fill="#9FAAA5" transform="translate(206,192)"/>
<path d="M0 0 C1.66666667 1.66666667 3.33333333 3.33333333 5 5 C5.763125 5.721875 6.52625 6.44375 7.3125 7.1875 C9 9 9 9 9 11 C5.19197555 9.5039904 3.30575443 7.33936849 1 4 C0.25 1.6875 0.25 1.6875 0 0 Z " fill="#17201D" transform="translate(213,213)"/>
<path d="M0 0 C0.66 0.33 1.32 0.66 2 1 C2 1.33 2 1.66 2 2 C2.66 2 3.32 2 4 2 C4 2.66 4 3.32 4 4 C2.1875 5.6875 2.1875 5.6875 0 7 C-0.99 6.67 -1.98 6.34 -3 6 C-2.625 3.5625 -2.625 3.5625 -2 1 C-1.34 0.67 -0.68 0.34 0 0 Z " fill="#59CFD4" transform="translate(181,301)"/>
<path d="M0 0 C0.66 0.33 1.32 0.66 2 1 C0.7934375 2.175625 0.7934375 2.175625 -0.4375 3.375 C-2.98690417 5.71982856 -2.98690417 5.71982856 -4 8 C-4.66 8 -5.32 8 -6 8 C-6.33 8.99 -6.66 9.98 -7 11 C-7 8.69 -7 6.38 -7 4 C-1.7265625 0.77734375 -1.7265625 0.77734375 0 0 Z " fill="#439486" transform="translate(256,267)"/>
<path d="M0 0 C1.5 1.1875 1.5 1.1875 3 3 C3 4.65 3 6.3 3 8 C-0.96 7.67 -4.92 7.34 -9 7 C-9 6.67 -9 6.34 -9 6 C-6.03 6 -3.06 6 0 6 C0 4.02 0 2.04 0 0 Z " fill="#42857B" transform="translate(280,245)"/>
<path d="M0 0 C0.66 0.33 1.32 0.66 2 1 C2.125 7.75 2.125 7.75 1 10 C0.34 10 -0.32 10 -1 10 C-1.33 7.36 -1.66 4.72 -2 2 C-1.34 2 -0.68 2 0 2 C0 1.34 0 0.68 0 0 Z " fill="#989A9A" transform="translate(208,186)"/>
<path d="M0 0 C0.86625 0.3403125 0.86625 0.3403125 1.75 0.6875 C-3 5.5625 -3 5.5625 -5.25 6.6875 C-5.58 5.3675 -5.91 4.0475 -6.25 2.6875 C-2.80384615 -0.38942308 -2.80384615 -0.38942308 0 0 Z " fill="#D2D2D2" transform="translate(82.25,219.3125)"/>
<path d="M0 0 C0.99 0.33 1.98 0.66 3 1 C3.99 1 4.98 1 6 1 C3.03 3.64 0.06 6.28 -3 9 C-3.66 8.67 -4.32 8.34 -5 8 C-4.34 7.401875 -3.68 6.80375 -3 6.1875 C-0.6626154 4.12498166 -0.6626154 4.12498166 -1 1 C-0.67 0.67 -0.34 0.34 0 0 Z " fill="#B9B9BA" transform="translate(95,214)"/>
<path d="M0 0 C0.33 0.99 0.66 1.98 1 3 C1.66 3 2.32 3 3 3 C2.50168276 6.68754757 1.89932357 8.60490662 -1 11 C-0.67 9.35 -0.34 7.7 0 6 C-0.66 6 -1.32 6 -2 6 C-1.34 4.02 -0.68 2.04 0 0 Z " fill="#80B5B7" transform="translate(211,307)"/>
<path d="M0 0 C0.33 0.99 0.66 1.98 1 3 C0.21625 3.268125 -0.5675 3.53625 -1.375 3.8125 C-4.28114923 4.84814432 -4.28114923 4.84814432 -6 8 C-6.66 7.67 -7.32 7.34 -8 7 C-6.74519472 3.23558416 -5.40450103 2.82680543 -2 1 C-1.34 0.67 -0.68 0.34 0 0 Z " fill="#59BBC0" transform="translate(188,303)"/>
<path d="M0 0 C-3.85623679 3.97674419 -3.85623679 3.97674419 -7.11328125 4.04296875 C-9.08863015 3.7798228 -11.04718291 3.39718314 -13 3 C-13 2.67 -13 2.34 -13 2 C-11.21089097 1.47044766 -9.41860852 0.9516063 -7.625 0.4375 C-6.62726563 0.14746094 -5.62953125 -0.14257812 -4.6015625 -0.44140625 C-2 -1 -2 -1 0 0 Z " fill="#839899" transform="translate(151,344)"/>
<path d="M0 0 C0.66 0.66 1.32 1.32 2 2 C1.875 3.9375 1.875 3.9375 1 6 C-1.0625 7.75 -1.0625 7.75 -3 9 C-2.44271087 5.65626525 -1.64826111 2.96687001 0 0 Z " fill="#41A0A0" transform="translate(276,267)"/>
<path d="M0 0 C0 3.63 0 7.26 0 11 C-3.00617269 7.99382731 -2.59585316 5.17618402 -3 1 C-1 0 -1 0 0 0 Z " fill="#4CA5A1" transform="translate(287,253)"/>
<path d="M0 0 C0.66 0 1.32 0 2 0 C5.22265625 5.17578125 5.22265625 5.17578125 6 7 C5.67 7.99 5.34 8.98 5 10 C0 4.5 0 4.5 0 0 Z " fill="#335F5A" transform="translate(277,238)"/>
<path d="M0 0 C0.33 0 0.66 0 1 0 C1.625 3.375 1.625 3.375 2 7 C1.34 7.66 0.68 8.32 0 9 C0 8.01 0 7.02 0 6 C-1.32 5.34 -2.64 4.68 -4 4 C-2.68 3.34 -1.36 2.68 0 2 C0 1.34 0 0.68 0 0 Z " fill="#5FA086" transform="translate(272,233)"/>
<path d="M0 0 C0.66 0.66 1.32 1.32 2 2 C0.35 4.31 -1.3 6.62 -3 9 C-3.66 8.67 -4.32 8.34 -5 8 C-3.35 5.36 -1.7 2.72 0 0 Z " fill="#86E1E5" transform="translate(171,318)"/>
<path d="M0 0 C0.66 0.33 1.32 0.66 2 1 C2 1.33 2 1.66 2 2 C2.33 2.99 2.66 3.98 3 5 C2.67 5.66 2.34 6.32 2 7 C0.68 6.34 -0.64 5.68 -2 5 C-1.125 1.125 -1.125 1.125 0 0 Z " fill="#70E0E4" transform="translate(185,306)"/>
<path d="M0 0 C2.35981813 0.93578995 4.69631264 1.93347808 7 3 C7 3.33 7 3.66 7 4 C2.71 3.67 -1.58 3.34 -6 3 C-4 2 -2 1 0 0 Z " fill="#5FA88C" transform="translate(254,232)"/>
<path d="M0 0 C2 3 2 3 1.625 5.1875 C1.41875 5.785625 1.2125 6.38375 1 7 C0.01 7 -0.98 7 -2 7 C-2.66 5.35 -3.32 3.7 -4 2 C-3.01 2.33 -2.02 2.66 -1 3 C-0.67 2.01 -0.34 1.02 0 0 Z " fill="#BCBEBE" transform="translate(205,189)"/>
<path d="M0 0 C0.99 0.66 1.98 1.32 3 2 C0.69 3.65 -1.62 5.3 -4 7 C-4.99 6.34 -5.98 5.68 -7 5 C-6.401875 4.9175 -5.80375 4.835 -5.1875 4.75 C-2.4033704 3.79544128 -1.56688858 2.42867729 0 0 Z " fill="#678485" transform="translate(156,336)"/>
<path d="M0 0 C-0.33 0.66 -0.66 1.32 -1 2 C-5.29 1.67 -9.58 1.34 -14 1 C-14 0.67 -14 0.34 -14 0 C-4.58997722 -1.33257403 -4.58997722 -1.33257403 0 0 Z " fill="#70A78D" transform="translate(267,225)"/>
<path d="M0 0 C1.32 1.65 2.64 3.3 4 5 C1.69 5 -0.62 5 -3 5 C-1.125 1.125 -1.125 1.125 0 0 Z " fill="#86D9DD" transform="translate(173,322)"/>
<path d="M0 0 C0.66 0 1.32 0 2 0 C2.33 1.32 2.66 2.64 3 4 C2.01 4 1.02 4 0 4 C0 6.31 0 8.62 0 11 C-0.33 11 -0.66 11 -1 11 C-1.125 3.375 -1.125 3.375 0 0 Z " fill="#719F9F" transform="translate(218,297)"/>
<path d="M0 0 C2.9375 0.375 2.9375 0.375 6 1 C6.33 1.66 6.66 2.32 7 3 C5 4 5 4 2 4 C1.34 2.68 0.68 1.36 0 0 Z " fill="#B4C9CA" transform="translate(107,288)"/>
<path d="M0 0 C2 0 2 0 3.4375 1.3125 C4.2109375 2.1478125 4.2109375 2.1478125 5 3 C5.556875 3.556875 6.11375 4.11375 6.6875 4.6875 C7.120625 5.120625 7.55375 5.55375 8 6 C5.36 5.34 2.72 4.68 0 4 C0 2.68 0 1.36 0 0 Z " fill="#D5DCDC" transform="translate(94,282)"/>
<path d="M0 0 C0.598125 0.33 1.19625 0.66 1.8125 1 C4.05386471 2.20787988 4.05386471 2.20787988 7 2 C7 2.99 7 3.98 7 5 C6.01 5 5.02 5 4 5 C1.8125 2.5 1.8125 2.5 0 0 Z " fill="#BCBCBC" transform="translate(192,171)"/>
<path d="M0 0 C0.66 0.33 1.32 0.66 2 1 C0.95125002 3.62187494 0.35068687 4.79371361 -2.125 6.25 C-2.74375 6.4975 -3.3625 6.745 -4 7 C-2.79618552 4.50638429 -1.54571278 2.31856917 0 0 Z " fill="#82E2E6" transform="translate(185,315)"/>
<path d="M0 0 C0.33 0.66 0.66 1.32 1 2 C0.06553465 4.03144641 -0.93224776 6.03533587 -2 8 C-2.33 8 -2.66 8 -3 8 C-3.1875 5.125 -3.1875 5.125 -3 2 C-2.01 1.34 -1.02 0.68 0 0 Z " fill="#589880" transform="translate(254,291)"/>
<path d="M0 0 C-1 3 -1 3 -4.0625 4.6875 C-5.031875 5.120625 -6.00125 5.55375 -7 6 C-7 5.01 -7 4.02 -7 3 C-2.77777778 0 -2.77777778 0 0 0 Z " fill="#64D8BF" transform="translate(257,275)"/>
<path d="M0 0 C-0.99 0.495 -0.99 0.495 -2 1 C-2 1.66 -2 2.32 -2 3 C-3.98 3 -5.96 3 -8 3 C-8 2.34 -8 1.68 -8 1 C-5.07175348 0.02391783 -3.04386724 -0.08226668 0 0 Z " fill="#6EB596" transform="translate(264,229)"/>
<path d="M0 0 C2.475 0.99 2.475 0.99 5 2 C4.01 2.495 4.01 2.495 3 3 C3 3.66 3 4.32 3 5 C1.68 4.67 0.36 4.34 -1 4 C-0.67 2.68 -0.34 1.36 0 0 Z " fill="#334C41" transform="translate(222,221)"/>
<path d="M0 0 C0.99 0.33 1.98 0.66 3 1 C1.35 2.32 -0.3 3.64 -2 5 C-1.125 1.125 -1.125 1.125 0 0 Z " fill="#DFDFDF" transform="translate(89,223)"/>
<path d="M0 0 C1.32 0 2.64 0 4 0 C3.67 0.99 3.34 1.98 3 3 C1.35 3.33 -0.3 3.66 -2 4 C-1.34 2.68 -0.68 1.36 0 0 Z " fill="#CECECE" transform="translate(92,211)"/>
<path d="M0 0 C0.33 0 0.66 0 1 0 C0.67 2.31 0.34 4.62 0 7 C-0.99 7 -1.98 7 -3 7 C-2.38722388 4.03824877 -1.74627478 2.61941217 0 0 Z " fill="#B1B1B1" transform="translate(208,181)"/>
<path d="M0 0 C5.78461538 3.44615385 5.78461538 3.44615385 6.875 6.25 C6.936875 7.11625 6.936875 7.11625 7 8 C3.28631113 6.76210371 2.22645819 5.14775123 0 2 C0 1.34 0 0.68 0 0 Z " fill="#DCDCDC" transform="translate(197,164)"/>
</svg>
